<svg width="199" height="46" viewBox="0 0 199 46" fill="none" xmlns="http://www.w3.org/2000/svg">
<path d="M52.9243 0H1.76469C0.385721 0 -0.441656 1.4709 0.247827 2.666L25.8506 45.1381C26.5401 46.2873 28.1949 46.2873 28.8384 45.1381L54.4412 2.666C55.1766 1.4709 54.3033 0 52.9243 0ZM42.1224 9.00924L27.8731 32.6815C27.6433 33.0492 27.0917 33.0492 26.8619 32.6815L22.1274 24.8214C21.9895 24.5916 21.7597 24.4996 21.5299 24.5456L16.3358 25.5109C15.7842 25.6028 15.4165 25.0052 15.7842 24.5916L19.0477 20.4547C19.1856 20.2708 19.2316 19.995 19.0937 19.8111L12.5666 9.00924C12.3368 8.64152 12.6126 8.1359 13.0722 8.1359H41.6168C42.0765 8.08993 42.3523 8.59555 42.1224 9.00924Z" fill="#3239FF"/>
<path d="M38.1693 11.4448L27.5973 29.0036C27.5053 29.1415 27.2755 29.1415 27.1836 29.0036L23.4604 22.7983C23.4144 22.7064 23.3225 22.6604 23.2305 22.7064L19.3235 23.4418C19.0477 23.4878 18.9557 23.166 19.1396 23.0281L37.8476 11.169C38.0314 11.0311 38.2613 11.2609 38.1693 11.4448Z" fill="#3239FF"/>
<path d="M74.8828 34.2263H69.6167L62.708 11.0498H67.5393L72.2739 27.3699H72.3222L77.1052 11.0498H81.9364L74.8828 34.2263Z" fill="#17191B"/>
<path d="M95.4149 34.2248C89.5208 34.2248 84.7861 29.0584 84.7861 22.6366C84.7861 16.2147 89.5208 11 95.4149 11C101.261 11 106.092 16.1664 106.092 22.6366C106.044 29.0584 101.261 34.2248 95.4149 34.2248ZM89.1343 22.6366C89.1343 26.3545 91.9847 29.4929 95.4149 29.4929C98.8451 29.4929 101.647 26.4027 101.647 22.6366C101.647 18.8704 98.8451 15.7802 95.4149 15.7802C91.9847 15.7802 89.1343 18.9187 89.1343 22.6366Z" fill="#17191B"/>
<path d="M110.827 34.2263V11.0498H115.417V29.929H126.336V34.2263H110.827Z" fill="#17191B"/>
<path d="M149.913 34.2263H143.487L137.931 27.7562L135.177 31.957V34.2746H130.394V11.0981H135.177V24.1832L143.487 11.0498H149.285L141.265 24.1832L149.913 34.2263Z" fill="#17191B"/>
<path d="M164.31 34.2248C158.416 34.2248 153.682 29.0584 153.682 22.6366C153.682 16.2147 158.416 11 164.31 11C170.156 11 174.988 16.1664 174.988 22.6366C174.939 29.0584 170.156 34.2248 164.31 34.2248ZM158.03 22.6366C158.03 26.3545 160.88 29.4929 164.31 29.4929C167.741 29.4929 170.543 26.4027 170.543 22.6366C170.543 18.8704 167.741 15.7802 164.31 15.7802C160.88 15.7802 158.03 18.9187 158.03 22.6366Z" fill="#17191B"/>
<path d="M194.118 24.3763H184.262V34.2263H179.721V11.0498H184.262V19.4513H194.118V11.1464H198.708V34.2746H194.118V24.3763Z" fill="#17191B"/>
</svg>
