<svg width="2335" height="102" viewBox="0 0 2335 102" fill="none" xmlns="http://www.w3.org/2000/svg">
<mask id="path-1-outside-1_432_138" maskUnits="userSpaceOnUse" x="0" y="0" width="2335" height="102" fill="black">
<rect fill="white" width="2335" height="102"/>
<path d="M47.3228 4.24999C58.2394 4.24999 67.7811 6.20833 75.9478 10.125C84.1978 14.0417 90.6144 19.5 95.1978 26.5C99.7811 33.5 102.073 41.7083 102.073 51.125C102.073 60.4583 99.7811 68.6667 95.1978 75.75C90.6144 82.75 84.1978 88.2083 75.9478 92.125C67.7811 96.0417 58.2394 98 47.3228 98H2.82275V4.24999H47.3228ZM23.9478 89.625L13.1978 79.25H48.9478C55.2811 79.25 60.8228 78.0833 65.5728 75.75C70.4061 73.4167 74.1144 70.125 76.6978 65.875C79.2811 61.625 80.5728 56.7083 80.5728 51.125C80.5728 45.4583 79.2811 40.5417 76.6978 36.375C74.1144 32.125 70.4061 28.8333 65.5728 26.5C60.8228 24.1667 55.2811 23 48.9478 23H13.1978L23.9478 12.625V89.625ZM193.238 43V59.25H126.113V43H193.238ZM140.363 51.125L134.113 90.875L124.863 80.375H197.113V98H112.738L119.988 51.125L112.738 4.24999H196.488V21.875H124.863L134.113 11.375L140.363 51.125ZM208.272 67.375H229.772C230.272 70.5417 231.647 73.3333 233.897 75.75C236.23 78.0833 239.314 79.9167 243.147 81.25C247.064 82.5 251.564 83.125 256.647 83.125C264.064 83.125 269.897 82.0833 274.147 80C278.48 77.8333 280.647 74.8333 280.647 71C280.647 68 279.397 65.7083 276.897 64.125C274.48 62.4583 269.939 61.25 263.272 60.5L244.397 58.375C232.23 57.0417 223.397 54.2083 217.897 49.875C212.48 45.4583 209.772 39.3333 209.772 31.5C209.772 25.3333 211.564 20.0833 215.147 15.75C218.814 11.4167 223.939 8.12499 230.522 5.87499C237.105 3.54166 244.855 2.37499 253.772 2.37499C262.439 2.37499 270.147 3.66666 276.897 6.25C283.647 8.74999 289.022 12.2917 293.022 16.875C297.022 21.375 299.189 26.6667 299.522 32.75H278.022C277.605 30 276.355 27.625 274.272 25.625C272.272 23.5417 269.48 21.9583 265.897 20.875C262.314 19.7083 258.105 19.125 253.272 19.125C246.522 19.125 241.147 20.125 237.147 22.125C233.147 24.125 231.147 26.9583 231.147 30.625C231.147 33.4583 232.314 35.6667 234.647 37.25C237.064 38.75 241.272 39.875 247.272 40.625L266.897 43C275.564 43.9167 282.439 45.4167 287.522 47.5C292.689 49.5 296.355 52.2083 298.522 55.625C300.772 59.0417 301.897 63.375 301.897 68.625C301.897 74.875 299.98 80.375 296.147 85.125C292.397 89.7917 287.105 93.4167 280.272 96C273.439 98.5833 265.439 99.875 256.272 99.875C246.939 99.875 238.73 98.5417 231.647 95.875C224.564 93.125 218.98 89.3333 214.897 84.5C210.814 79.5833 208.605 73.875 208.272 67.375ZM316.177 4.24999H337.427V98H316.177V4.24999ZM451.458 57.375C451.374 63.0417 450.249 68.4583 448.083 73.625C445.999 78.7083 442.999 83.25 439.083 87.25C435.166 91.1667 430.333 94.25 424.583 96.5C418.833 98.75 412.166 99.875 404.583 99.875C397.249 99.875 390.374 98.7917 383.958 96.625C377.624 94.375 372.041 91.1667 367.208 87C362.458 82.8333 358.749 77.75 356.083 71.75C353.416 65.6667 352.083 58.7917 352.083 51.125C352.083 43.4583 353.416 36.625 356.083 30.625C358.833 24.5417 362.624 19.4167 367.458 15.25C372.291 11.0833 377.958 7.91666 384.458 5.75C390.958 3.49999 398.041 2.37499 405.708 2.37499C415.708 2.37499 424.374 3.95833 431.708 7.12499C439.041 10.2083 444.958 14.5 449.458 20C454.041 25.5 456.874 31.7917 457.958 38.875H436.583C435.749 35.0417 433.916 31.75 431.083 29C428.333 26.25 424.791 24.125 420.458 22.625C416.208 21.125 411.291 20.375 405.708 20.375C399.124 20.375 393.416 21.5833 388.583 24C383.833 26.3333 380.124 29.7917 377.458 34.375C374.874 38.9583 373.583 44.5417 373.583 51.125C373.583 57.7083 374.958 63.3333 377.708 68C380.458 72.6667 384.374 76.25 389.458 78.75C394.541 81.1667 400.541 82.375 407.458 82.375C414.208 82.375 420.124 81.3333 425.208 79.25C430.291 77.0833 434.291 74.0833 437.208 70.25C440.208 66.3333 441.916 61.7083 442.333 56.375L451.458 57.375ZM410.333 66V50.625H458.958V98H443.708L440.833 60L445.208 66H410.333ZM562.842 84L555.467 85.125V4.24999H576.092V98H549.217L489.217 17.125L496.467 16V98H475.967V4.24999H503.467L562.842 84ZM622.212 67.375H643.712C644.212 70.5417 645.587 73.3333 647.837 75.75C650.171 78.0833 653.254 79.9167 657.087 81.25C661.004 82.5 665.504 83.125 670.587 83.125C678.004 83.125 683.837 82.0833 688.087 80C692.421 77.8333 694.587 74.8333 694.587 71C694.587 68 693.337 65.7083 690.837 64.125C688.421 62.4583 683.879 61.25 677.212 60.5L658.337 58.375C646.171 57.0417 637.337 54.2083 631.837 49.875C626.421 45.4583 623.712 39.3333 623.712 31.5C623.712 25.3333 625.504 20.0833 629.087 15.75C632.754 11.4167 637.879 8.12499 644.462 5.87499C651.046 3.54166 658.796 2.37499 667.712 2.37499C676.379 2.37499 684.087 3.66666 690.837 6.25C697.587 8.74999 702.962 12.2917 706.962 16.875C710.962 21.375 713.129 26.6667 713.462 32.75H691.962C691.546 30 690.296 27.625 688.212 25.625C686.212 23.5417 683.421 21.9583 679.837 20.875C676.254 19.7083 672.046 19.125 667.212 19.125C660.462 19.125 655.087 20.125 651.087 22.125C647.087 24.125 645.087 26.9583 645.087 30.625C645.087 33.4583 646.254 35.6667 648.587 37.25C651.004 38.75 655.212 39.875 661.212 40.625L680.837 43C689.504 43.9167 696.379 45.4167 701.462 47.5C706.629 49.5 710.296 52.2083 712.462 55.625C714.712 59.0417 715.837 63.375 715.837 68.625C715.837 74.875 713.921 80.375 710.087 85.125C706.337 89.7917 701.046 93.4167 694.212 96C687.379 98.5833 679.379 99.875 670.212 99.875C660.879 99.875 652.671 98.5417 645.587 95.875C638.504 93.125 632.921 89.3333 628.837 84.5C624.754 79.5833 622.546 73.875 622.212 67.375ZM780.243 99.875C769.326 99.875 759.743 97.8333 751.493 93.75C743.326 89.6667 736.951 84 732.368 76.75C727.784 69.4167 725.493 60.875 725.493 51.125C725.493 41.375 727.784 32.875 732.368 25.625C736.951 18.2917 743.326 12.5833 751.493 8.5C759.743 4.41666 769.326 2.37499 780.243 2.37499C791.159 2.37499 800.701 4.41666 808.868 8.5C817.118 12.5833 823.534 18.2917 828.118 25.625C832.701 32.875 834.993 41.375 834.993 51.125C834.993 60.875 832.701 69.4167 828.118 76.75C823.534 84 817.118 89.6667 808.868 93.75C800.701 97.8333 791.159 99.875 780.243 99.875ZM780.243 81C787.076 81 792.951 79.7917 797.868 77.375C802.868 74.9583 806.701 71.5 809.368 67C812.118 62.5 813.493 57.2083 813.493 51.125C813.493 45.0417 812.118 39.75 809.368 35.25C806.701 30.75 802.868 27.2917 797.868 24.875C792.951 22.4583 787.076 21.25 780.243 21.25C773.493 21.25 767.618 22.4583 762.618 24.875C757.618 27.2917 753.743 30.75 750.993 35.25C748.326 39.75 746.993 45.0417 746.993 51.125C746.993 57.2083 748.326 62.5 750.993 67C753.743 71.5 757.618 74.9583 762.618 77.375C767.618 79.7917 773.493 81 780.243 81ZM869.625 56.875C869.625 61.875 870.583 66.1667 872.5 69.75C874.416 73.3333 877.208 76.125 880.875 78.125C884.625 80.0417 889.125 81 894.375 81C899.708 81 904.208 80.0417 907.875 78.125C911.541 76.125 914.333 73.3333 916.25 69.75C918.166 66.1667 919.125 61.875 919.125 56.875V4.24999H940.375V57.875C940.375 66.2917 938.458 73.6667 934.625 80C930.791 86.25 925.416 91.125 918.5 94.625C911.583 98.125 903.541 99.875 894.375 99.875C885.208 99.875 877.166 98.125 870.25 94.625C863.416 91.125 858.041 86.25 854.125 80C850.291 73.6667 848.375 66.2917 848.375 57.875V4.24999H869.625V56.875ZM973.139 45.875H1009.26C1014.01 45.875 1017.76 44.7917 1020.51 42.625C1023.35 40.375 1024.76 37.2917 1024.76 33.375C1024.76 29.4583 1023.35 26.4167 1020.51 24.25C1017.76 22.0833 1014.01 21 1009.26 21H970.014L979.639 10.125V98H958.389V4.24999H1011.76C1018.6 4.24999 1024.6 5.49999 1029.76 8C1034.93 10.4167 1038.97 13.7917 1041.89 18.125C1044.81 22.4583 1046.26 27.5417 1046.26 33.375C1046.26 39.125 1044.81 44.1667 1041.89 48.5C1038.97 52.8333 1034.93 56.25 1029.76 58.75C1024.6 61.1667 1018.6 62.375 1011.76 62.375H973.139V45.875ZM989.389 54.125H1013.64L1049.01 98H1024.14L989.389 54.125ZM1162.79 59.875C1161.88 67.7917 1159.09 74.7917 1154.42 80.875C1149.84 86.875 1143.75 91.5417 1136.17 94.875C1128.67 98.2083 1120.09 99.875 1110.42 99.875C1099.75 99.875 1090.38 97.8333 1082.29 93.75C1074.29 89.6667 1068.04 84 1063.54 76.75C1059.04 69.4167 1056.79 60.875 1056.79 51.125C1056.79 41.375 1059.04 32.875 1063.54 25.625C1068.04 18.2917 1074.29 12.5833 1082.29 8.5C1090.38 4.41666 1099.75 2.37499 1110.42 2.37499C1120.09 2.37499 1128.67 4.04166 1136.17 7.375C1143.75 10.7083 1149.84 15.375 1154.42 21.375C1159.09 27.375 1161.88 34.375 1162.79 42.375H1141.42C1140.59 37.9583 1138.79 34.1667 1136.04 31C1133.29 27.75 1129.75 25.25 1125.42 23.5C1121.09 21.75 1116.04 20.875 1110.29 20.875C1103.71 20.875 1098 22.125 1093.17 24.625C1088.42 27.0417 1084.75 30.5417 1082.17 35.125C1079.59 39.625 1078.29 44.9583 1078.29 51.125C1078.29 57.2917 1079.59 62.6667 1082.17 67.25C1084.75 71.75 1088.42 75.25 1093.17 77.75C1098 80.1667 1103.71 81.375 1110.29 81.375C1116.04 81.375 1121.09 80.5417 1125.42 78.875C1129.75 77.125 1133.29 74.6667 1136.04 71.5C1138.79 68.25 1140.59 64.375 1141.42 59.875H1162.79ZM1176.65 4.24999H1197.9V98H1176.65V4.24999ZM1303.93 84L1296.56 85.125V4.24999H1317.18V98H1290.31L1230.31 17.125L1237.56 16V98H1217.06V4.24999H1244.56L1303.93 84ZM1431.19 57.375C1431.11 63.0417 1429.99 68.4583 1427.82 73.625C1425.74 78.7083 1422.74 83.25 1418.82 87.25C1414.9 91.1667 1410.07 94.25 1404.32 96.5C1398.57 98.75 1391.9 99.875 1384.32 99.875C1376.99 99.875 1370.11 98.7917 1363.69 96.625C1357.36 94.375 1351.78 91.1667 1346.94 87C1342.19 82.8333 1338.49 77.75 1335.82 71.75C1333.15 65.6667 1331.82 58.7917 1331.82 51.125C1331.82 43.4583 1333.15 36.625 1335.82 30.625C1338.57 24.5417 1342.36 19.4167 1347.19 15.25C1352.03 11.0833 1357.69 7.91666 1364.19 5.75C1370.69 3.49999 1377.78 2.37499 1385.44 2.37499C1395.44 2.37499 1404.11 3.95833 1411.44 7.12499C1418.78 10.2083 1424.69 14.5 1429.19 20C1433.78 25.5 1436.61 31.7917 1437.69 38.875H1416.32C1415.49 35.0417 1413.65 31.75 1410.82 29C1408.07 26.25 1404.53 24.125 1400.19 22.625C1395.94 21.125 1391.03 20.375 1385.44 20.375C1378.86 20.375 1373.15 21.5833 1368.32 24C1363.57 26.3333 1359.86 29.7917 1357.19 34.375C1354.61 38.9583 1353.32 44.5417 1353.32 51.125C1353.32 57.7083 1354.69 63.3333 1357.44 68C1360.19 72.6667 1364.11 76.25 1369.19 78.75C1374.28 81.1667 1380.28 82.375 1387.19 82.375C1393.94 82.375 1399.86 81.3333 1404.94 79.25C1410.03 77.0833 1414.03 74.0833 1416.94 70.25C1419.94 66.3333 1421.65 61.7083 1422.07 56.375L1431.19 57.375ZM1390.07 66V50.625H1438.69V98H1423.44L1420.57 60L1424.94 66H1390.07ZM1537.81 99.875C1526.89 99.875 1517.31 97.8333 1509.06 93.75C1500.89 89.6667 1494.52 84 1489.94 76.75C1485.35 69.4167 1483.06 60.875 1483.06 51.125C1483.06 41.375 1485.35 32.875 1489.94 25.625C1494.52 18.2917 1500.89 12.5833 1509.06 8.5C1517.31 4.41666 1526.89 2.37499 1537.81 2.37499C1548.73 2.37499 1558.27 4.41666 1566.44 8.5C1574.69 12.5833 1581.1 18.2917 1585.69 25.625C1590.27 32.875 1592.56 41.375 1592.56 51.125C1592.56 60.875 1590.27 69.4167 1585.69 76.75C1581.1 84 1574.69 89.6667 1566.44 93.75C1558.27 97.8333 1548.73 99.875 1537.81 99.875ZM1537.81 81C1544.64 81 1550.52 79.7917 1555.44 77.375C1560.44 74.9583 1564.27 71.5 1566.94 67C1569.69 62.5 1571.06 57.2083 1571.06 51.125C1571.06 45.0417 1569.69 39.75 1566.94 35.25C1564.27 30.75 1560.44 27.2917 1555.44 24.875C1550.52 22.4583 1544.64 21.25 1537.81 21.25C1531.06 21.25 1525.19 22.4583 1520.19 24.875C1515.19 27.2917 1511.31 30.75 1508.56 35.25C1505.89 39.75 1504.56 45.0417 1504.56 51.125C1504.56 57.2083 1505.89 62.5 1508.56 67C1511.31 71.5 1515.19 74.9583 1520.19 77.375C1525.19 79.7917 1531.06 81 1537.81 81ZM1658.32 4.24999C1665.73 4.24999 1672.15 5.54166 1677.57 8.12499C1682.98 10.7083 1687.11 14.3333 1689.94 19C1692.86 23.6667 1694.32 29.0833 1694.32 35.25C1694.32 41.4167 1692.86 46.8333 1689.94 51.5C1687.11 56.0833 1682.98 59.7083 1677.57 62.375C1672.15 64.9583 1665.73 66.25 1658.32 66.25H1616.94V48.75H1657.19C1662.11 48.75 1665.94 47.5417 1668.69 45.125C1671.53 42.7083 1672.94 39.4167 1672.94 35.25C1672.94 31 1671.53 27.7083 1668.69 25.375C1665.94 22.9583 1662.11 21.75 1657.19 21.75H1618.82L1628.44 11.625V98H1607.19V4.24999H1658.32ZM1735.33 13.75H1756.46V98H1735.33V13.75ZM1697.96 4.24999H1793.71V23H1697.96V4.24999ZM1805.56 4.24999H1826.81V98H1805.56V4.24999ZM1977.59 4.24999V98H1957.34V11.375L1962.71 11.75L1922.71 98H1900.84L1860.84 12L1866.09 11.5V98H1845.96V4.24999H1878.59L1916.34 87.75H1907.21L1944.96 4.24999H1977.59ZM1996.72 4.24999H2017.97V98H1996.72V4.24999ZM2032.62 98V82.25L2097.87 15.75L2112.62 21.25H2033.12V4.24999H2120.87V19.875L2055.5 86.625L2042.87 81H2121.25V98H2032.62ZM2213.5 43V59.25H2146.38V43H2213.5ZM2160.63 51.125L2154.38 90.875L2145.13 80.375H2217.38V98H2133L2140.25 51.125L2133 4.24999H2216.75V21.875H2145.13L2154.38 11.375L2160.63 51.125ZM2278.04 4.24999C2288.95 4.24999 2298.49 6.20833 2306.66 10.125C2314.91 14.0417 2321.33 19.5 2325.91 26.5C2330.49 33.5 2332.79 41.7083 2332.79 51.125C2332.79 60.4583 2330.49 68.6667 2325.91 75.75C2321.33 82.75 2314.91 88.2083 2306.66 92.125C2298.49 96.0417 2288.95 98 2278.04 98H2233.54V4.24999H2278.04ZM2254.66 89.625L2243.91 79.25H2279.66C2285.99 79.25 2291.54 78.0833 2296.29 75.75C2301.12 73.4167 2304.83 70.125 2307.41 65.875C2309.99 61.625 2311.29 56.7083 2311.29 51.125C2311.29 45.4583 2309.99 40.5417 2307.41 36.375C2304.83 32.125 2301.12 28.8333 2296.29 26.5C2291.54 24.1667 2285.99 23 2279.66 23H2243.91L2254.66 12.625V89.625Z"/>
</mask>
<path d="M75.9478 10.125L75.0829 11.9283L75.09 11.9317L75.9478 10.125ZM95.1978 75.75L96.871 76.8456L96.8769 76.8365L95.1978 75.75ZM75.9478 92.125L75.09 90.3183L75.0829 90.3217L75.9478 92.125ZM2.82275 98H0.822755V100H2.82275V98ZM2.82275 4.24999V2.24999H0.822755V4.24999H2.82275ZM23.9478 89.625L22.5589 91.0641L25.9478 94.3348V89.625H23.9478ZM13.1978 79.25V77.25H8.24547L11.8089 80.6891L13.1978 79.25ZM65.5728 75.75L64.7032 73.9489L64.691 73.9549L65.5728 75.75ZM76.6978 65.875L78.4068 66.9138L76.6978 65.875ZM76.6978 36.375L74.9887 37.4138L74.9933 37.4214L74.998 37.4289L76.6978 36.375ZM65.5728 26.5L64.6909 28.2951L64.7033 28.3011L65.5728 26.5ZM13.1978 23L11.8089 21.5609L8.24547 25H13.1978V23ZM23.9478 12.625H25.9478V7.91523L22.5589 11.1859L23.9478 12.625ZM47.3228 6.24999C58.0006 6.24999 67.2359 8.16498 75.0829 11.9283L76.8126 8.32167C68.3263 4.25167 58.4782 2.24999 47.3228 2.24999V6.24999ZM75.09 11.9317C83.0394 15.7057 89.1608 20.9309 93.5245 27.5956L96.871 25.4044C92.0681 18.0691 85.3561 12.3776 76.8055 8.31827L75.09 11.9317ZM93.5245 27.5956C97.8686 34.2302 100.073 42.0471 100.073 51.125H104.073C104.073 41.3695 101.694 32.7698 96.871 25.4044L93.5245 27.5956ZM100.073 51.125C100.073 60.1153 97.8706 67.9377 93.5186 74.6635L96.8769 76.8365C101.692 69.3956 104.073 60.8014 104.073 51.125H100.073ZM93.5245 74.6544C89.1608 81.3191 83.0394 86.5443 75.09 90.3183L76.8055 93.9317C85.3561 89.8724 92.0681 84.1809 96.871 76.8456L93.5245 74.6544ZM75.0829 90.3217C67.2359 94.085 58.0006 96 47.3228 96V100C58.4782 100 68.3263 97.9983 76.8126 93.9283L75.0829 90.3217ZM47.3228 96H2.82275V100H47.3228V96ZM4.82275 98V4.24999H0.822755V98H4.82275ZM2.82275 6.24999H47.3228V2.24999H2.82275V6.24999ZM25.3366 88.1859L14.5866 77.8109L11.8089 80.6891L22.5589 91.0641L25.3366 88.1859ZM13.1978 81.25H48.9478V77.25H13.1978V81.25ZM48.9478 81.25C55.5273 81.25 61.3813 80.0372 66.4546 77.5451L64.691 73.9549C60.2642 76.1294 55.0349 77.25 48.9478 77.25V81.25ZM66.4423 77.5511C71.5944 75.0639 75.6071 71.5198 78.4068 66.9138L74.9887 64.8362C72.6218 68.7302 69.2178 71.7695 64.7033 73.9489L66.4423 77.5511ZM78.4068 66.9138C81.203 62.3136 82.5728 57.0286 82.5728 51.125H78.5728C78.5728 56.388 77.3591 60.9364 74.9887 64.8362L78.4068 66.9138ZM82.5728 51.125C82.5728 45.1451 81.2061 39.851 78.3976 35.3211L74.998 37.4289C77.3561 41.2323 78.5728 45.7716 78.5728 51.125H82.5728ZM78.4068 35.3362C75.6071 30.7302 71.5944 27.1861 66.4423 24.6989L64.7033 28.3011C69.2178 30.4805 72.6218 33.5198 74.9887 37.4138L78.4068 35.3362ZM66.4546 24.7049C61.3813 22.2128 55.5273 21 48.9478 21V25C55.0349 25 60.2642 26.1206 64.691 28.2951L66.4546 24.7049ZM48.9478 21H13.1978V25H48.9478V21ZM14.5866 24.4391L25.3366 14.0641L22.5589 11.1859L11.8089 21.5609L14.5866 24.4391ZM21.9478 12.625V89.625H25.9478V12.625H21.9478ZM193.238 43H195.238V41H193.238V43ZM193.238 59.25V61.25H195.238V59.25H193.238ZM126.113 59.25H124.113V61.25H126.113V59.25ZM126.113 43V41H124.113V43H126.113ZM140.363 51.125L142.339 51.4356L142.387 51.125L142.339 50.8143L140.363 51.125ZM134.113 90.875L132.612 92.1971L135.427 95.3925L136.089 91.1856L134.113 90.875ZM124.863 80.375V78.375H120.436L123.362 81.6971L124.863 80.375ZM197.113 80.375H199.113V78.375H197.113V80.375ZM197.113 98V100H199.113V98H197.113ZM112.738 98L110.761 97.6943L110.405 100H112.738V98ZM119.988 51.125L121.964 51.4307L122.012 51.125L121.964 50.8193L119.988 51.125ZM112.738 4.24999V2.24999H110.405L110.761 4.55569L112.738 4.24999ZM196.488 4.24999H198.488V2.24999H196.488V4.24999ZM196.488 21.875V23.875H198.488V21.875H196.488ZM124.863 21.875L123.362 20.5529L120.436 23.875H124.863V21.875ZM134.113 11.375L136.089 11.0643L135.427 6.85754L132.612 10.0529L134.113 11.375ZM191.238 43V59.25H195.238V43H191.238ZM193.238 57.25H126.113V61.25H193.238V57.25ZM128.113 59.25V43H124.113V59.25H128.113ZM126.113 45H193.238V41H126.113V45ZM138.387 50.8143L132.137 90.5644L136.089 91.1856L142.339 51.4356L138.387 50.8143ZM135.614 89.5529L126.364 79.0529L123.362 81.6971L132.612 92.1971L135.614 89.5529ZM124.863 82.375H197.113V78.375H124.863V82.375ZM195.113 80.375V98H199.113V80.375H195.113ZM197.113 96H112.738V100H197.113V96ZM114.714 98.3057L121.964 51.4307L118.011 50.8193L110.761 97.6943L114.714 98.3057ZM121.964 50.8193L114.714 3.94429L110.761 4.55569L118.011 51.4307L121.964 50.8193ZM112.738 6.24999H196.488V2.24999H112.738V6.24999ZM194.488 4.24999V21.875H198.488V4.24999H194.488ZM196.488 19.875H124.863V23.875H196.488V19.875ZM126.364 23.1971L135.614 12.6971L132.612 10.0529L123.362 20.5529L126.364 23.1971ZM132.137 11.6856L138.387 51.4356L142.339 50.8143L136.089 11.0643L132.137 11.6856ZM208.272 67.375V65.375H206.167L206.275 67.4774L208.272 67.375ZM229.772 67.375L231.747 67.0631L231.481 65.375H229.772V67.375ZM233.897 75.75L232.433 77.1128L232.458 77.139L232.483 77.1642L233.897 75.75ZM243.147 81.25L242.49 83.139L242.514 83.1475L242.539 83.1553L243.147 81.25ZM274.147 80L275.027 81.7958L275.034 81.7924L275.041 81.7889L274.147 80ZM276.897 64.125L275.762 65.7714L275.794 65.7937L275.827 65.8146L276.897 64.125ZM263.272 60.5L263.048 62.4874L263.048 62.4875L263.272 60.5ZM244.397 58.375L244.621 56.3875L244.615 56.3869L244.397 58.375ZM217.897 49.875L216.633 51.425L216.646 51.4356L216.659 51.446L217.897 49.875ZM215.147 15.75L213.62 14.4581L213.613 14.4667L213.606 14.4755L215.147 15.75ZM230.522 5.87499L231.169 7.76751L231.179 7.76386L231.19 7.76009L230.522 5.87499ZM276.897 6.25L276.182 8.11787L276.192 8.12174L276.202 8.12549L276.897 6.25ZM293.022 16.875L291.515 18.1901L291.521 18.1969L291.527 18.2037L293.022 16.875ZM299.522 32.75V34.75H301.635L301.519 32.6406L299.522 32.75ZM278.022 32.75L276.045 33.0496L276.302 34.75H278.022V32.75ZM274.272 25.625L272.829 27.0101L272.857 27.0395L272.887 27.0678L274.272 25.625ZM265.897 20.875L265.278 22.7767L265.298 22.7833L265.318 22.7894L265.897 20.875ZM237.147 22.125L236.253 20.3361L237.147 22.125ZM234.647 37.25L233.524 38.9049L233.558 38.9278L233.592 38.9493L234.647 37.25ZM247.272 40.625L247.024 42.6096L247.032 42.6105L247.272 40.625ZM266.897 43L266.657 44.9855L266.672 44.9873L266.687 44.9889L266.897 43ZM287.522 47.5L286.764 49.3506L286.782 49.3581L286.8 49.3651L287.522 47.5ZM298.522 55.625L296.833 56.6961L296.842 56.7106L296.852 56.725L298.522 55.625ZM296.147 85.125L294.591 83.869L294.588 83.8722L296.147 85.125ZM231.647 95.875L230.923 97.7394L230.933 97.7431L230.942 97.7467L231.647 95.875ZM214.897 84.5L213.358 85.7778L213.364 85.7843L213.369 85.7907L214.897 84.5ZM208.272 69.375H229.772V65.375H208.272V69.375ZM227.796 67.6869C228.361 71.2594 229.92 74.4139 232.433 77.1128L235.361 74.3872C233.374 72.2528 232.183 69.824 231.747 67.0631L227.796 67.6869ZM232.483 77.1642C235.073 79.7542 238.436 81.7289 242.49 83.139L243.804 79.361C240.191 78.1045 237.388 76.4124 235.311 74.3358L232.483 77.1642ZM242.539 83.1553C246.692 84.4809 251.404 85.125 256.647 85.125V81.125C251.723 81.125 247.435 80.5191 243.755 79.3447L242.539 83.1553ZM256.647 85.125C264.213 85.125 270.391 84.0683 275.027 81.7958L273.267 78.2042C269.403 80.0983 263.914 81.125 256.647 81.125V85.125ZM275.041 81.7889C279.839 79.39 282.647 75.803 282.647 71H278.647C278.647 73.8637 277.121 76.2767 273.253 78.2111L275.041 81.7889ZM282.647 71C282.647 67.3262 281.056 64.3915 277.967 62.4354L275.827 65.8146C277.738 67.0252 278.647 68.6738 278.647 71H282.647ZM278.032 62.4786C275.167 60.5021 270.171 59.2635 263.496 58.5125L263.048 62.4875C269.707 63.2365 273.794 64.4146 275.762 65.7714L278.032 62.4786ZM263.496 58.5126L244.621 56.3876L244.173 60.3624L263.048 62.4874L263.496 58.5126ZM244.615 56.3869C232.577 55.0677 224.194 52.2902 219.135 48.304L216.659 51.446C222.6 56.1265 231.884 59.0157 244.179 60.3631L244.615 56.3869ZM219.161 48.325C214.27 44.3371 211.772 38.8144 211.772 31.5H207.772C207.772 39.8523 210.691 46.5795 216.633 51.425L219.161 48.325ZM211.772 31.5C211.772 25.7505 213.431 20.9639 216.688 17.0245L213.606 14.4755C209.697 19.2028 207.772 24.9162 207.772 31.5H211.772ZM216.674 17.0419C220.059 13.0408 224.851 9.92687 231.169 7.76751L229.875 3.98247C223.027 6.32311 217.568 9.79254 213.62 14.4581L216.674 17.0419ZM231.19 7.76009C237.509 5.52054 245.023 4.37499 253.772 4.37499V0.374994C244.688 0.374994 236.702 1.56278 229.854 3.9899L231.19 7.76009ZM253.772 4.37499C262.242 4.37499 269.701 5.63737 276.182 8.11787L277.612 4.38212C270.593 1.69596 262.636 0.374994 253.772 0.374994V4.37499ZM276.202 8.12549C282.696 10.5307 287.772 13.9009 291.515 18.1901L294.529 15.5599C290.272 10.6824 284.597 6.96926 277.592 4.3745L276.202 8.12549ZM291.527 18.2037C295.223 22.3614 297.216 27.2218 297.525 32.8594L301.519 32.6406C301.161 26.1116 298.821 20.3886 294.517 15.5463L291.527 18.2037ZM299.522 30.75H278.022V34.75H299.522V30.75ZM279.999 32.4504C279.514 29.2468 278.045 26.475 275.657 24.1822L272.887 27.0678C274.665 28.775 275.697 30.7532 276.045 33.0496L279.999 32.4504ZM275.715 24.2399C273.417 21.8461 270.293 20.1146 266.476 18.9606L265.318 22.7894C268.668 23.8021 271.127 25.2372 272.829 27.0101L275.715 24.2399ZM266.516 18.9733C262.686 17.7261 258.259 17.125 253.272 17.125V21.125C257.951 21.125 261.942 21.6906 265.278 22.7767L266.516 18.9733ZM253.272 17.125C246.356 17.125 240.636 18.1446 236.253 20.3361L238.041 23.9138C241.658 22.1054 246.688 21.125 253.272 21.125V17.125ZM236.253 20.3361C234.04 21.4422 232.251 22.8435 231.013 24.5966C229.761 26.3706 229.147 28.4037 229.147 30.625H233.147C233.147 29.1796 233.533 27.9627 234.281 26.9034C235.043 25.8231 236.253 24.8078 238.041 23.9138L236.253 20.3361ZM229.147 30.625C229.147 34.1174 230.639 36.9473 233.524 38.9049L235.77 35.595C233.988 34.3861 233.147 32.7993 233.147 30.625H229.147ZM233.592 38.9493C236.404 40.6943 240.989 41.8552 247.024 42.6096L247.52 38.6404C241.555 37.8948 237.724 36.8057 235.702 35.5507L233.592 38.9493ZM247.032 42.6105L266.657 44.9855L267.137 41.0145L247.512 38.6395L247.032 42.6105ZM266.687 44.9889C275.261 45.8959 281.927 47.3684 286.764 49.3506L288.28 45.6494C282.95 43.4649 275.866 41.9375 267.107 41.0111L266.687 44.9889ZM286.8 49.3651C291.712 51.2667 294.967 53.7528 296.833 56.6961L300.211 54.5539C297.744 50.6638 293.665 47.7333 288.244 45.6349L286.8 49.3651ZM296.852 56.725C298.833 59.7341 299.897 63.6561 299.897 68.625H303.897C303.897 63.0939 302.711 58.3493 300.192 54.525L296.852 56.725ZM299.897 68.625C299.897 74.4298 298.129 79.4838 294.591 83.869L297.703 86.381C301.831 81.2662 303.897 75.3202 303.897 68.625H299.897ZM294.588 83.8722C291.106 88.2052 286.137 91.6444 279.565 94.1292L280.979 97.8708C288.073 95.1889 293.688 91.3782 297.706 86.3778L294.588 83.8722ZM279.565 94.1292C273.007 96.6084 265.256 97.875 256.272 97.875V101.875C265.621 101.875 273.87 100.558 280.979 97.8708L279.565 94.1292ZM256.272 97.875C247.125 97.875 239.164 96.5679 232.352 94.0033L230.942 97.7467C238.297 100.515 246.752 101.875 256.272 101.875V97.875ZM232.371 94.0106C225.537 91.3574 220.253 87.7405 216.425 83.2093L213.369 85.7907C217.708 90.9261 223.59 94.8926 230.923 97.7394L232.371 94.0106ZM216.436 83.2222C212.633 78.6441 210.581 73.3501 210.269 67.2726L206.275 67.4774C206.63 74.3999 208.994 80.5226 213.358 85.7778L216.436 83.2222ZM316.177 4.24999V2.24999H314.177V4.24999H316.177ZM337.427 4.24999H339.427V2.24999H337.427V4.24999ZM337.427 98V100H339.427V98H337.427ZM316.177 98H314.177V100H316.177V98ZM316.177 6.24999H337.427V2.24999H316.177V6.24999ZM335.427 4.24999V98H339.427V4.24999H335.427ZM337.427 96H316.177V100H337.427V96ZM318.177 98V4.24999H314.177V98H318.177ZM451.458 57.375L453.457 57.4044L453.484 55.5851L451.675 55.3869L451.458 57.375ZM448.083 73.625L446.238 72.8515L446.235 72.859L446.232 72.8666L448.083 73.625ZM439.083 87.25L440.497 88.6642L440.504 88.6568L440.512 88.6492L439.083 87.25ZM383.958 96.625L383.288 98.5096L383.303 98.5149L383.318 98.5199L383.958 96.625ZM367.208 87L365.889 88.5035L365.895 88.5092L365.902 88.5148L367.208 87ZM356.083 71.75L354.251 72.553L354.255 72.5623L356.083 71.75ZM356.083 30.625L354.26 29.8011L354.255 29.8127L356.083 30.625ZM367.458 15.25L366.152 13.7352L367.458 15.25ZM384.458 5.75L385.09 7.64736L385.101 7.64373L385.112 7.63997L384.458 5.75ZM431.708 7.12499L430.915 8.96112L430.923 8.96493L430.932 8.96866L431.708 7.12499ZM449.458 20L447.91 21.2665L447.915 21.2734L447.921 21.2804L449.458 20ZM457.958 38.875V40.875H460.287L459.935 38.5726L457.958 38.875ZM436.583 38.875L434.628 39.2999L434.971 40.875H436.583V38.875ZM431.083 29L429.668 30.4142L429.679 30.4248L429.69 30.4352L431.083 29ZM420.458 22.625L419.792 24.511L419.803 24.515L420.458 22.625ZM388.583 24L389.464 25.7952L389.477 25.7889L388.583 24ZM377.458 34.375L375.729 33.3692L375.722 33.381L375.715 33.393L377.458 34.375ZM377.708 68L375.984 69.0154L377.708 68ZM389.458 78.75L388.575 80.5447L388.587 80.5506L388.599 80.5563L389.458 78.75ZM425.208 79.25L425.966 81.1006L425.979 81.0953L425.992 81.0898L425.208 79.25ZM437.208 70.25L435.62 69.0338L435.616 69.039L437.208 70.25ZM442.333 56.375L442.55 54.3869L440.499 54.1621L440.339 56.2192L442.333 56.375ZM410.333 66H408.333V68H410.333V66ZM410.333 50.625V48.625H408.333V50.625H410.333ZM458.958 50.625H460.958V48.625H458.958V50.625ZM458.958 98V100H460.958V98H458.958ZM443.708 98L441.713 98.1509L441.853 100H443.708V98ZM440.833 60L442.449 58.8217L438.308 53.1432L438.838 60.1509L440.833 60ZM445.208 66V68H449.141L446.824 64.8217L445.208 66ZM449.458 57.3456C449.378 62.7596 448.305 67.9235 446.238 72.8515L449.927 74.3985C452.194 68.9932 453.37 63.3237 453.457 57.4044L449.458 57.3456ZM446.232 72.8666C444.248 77.7065 441.393 82.0316 437.654 85.8508L440.512 88.6492C444.605 84.4684 447.75 79.7102 449.933 74.3834L446.232 72.8666ZM437.668 85.8358C433.968 89.5361 429.376 92.4765 423.854 94.6375L425.311 98.3625C431.289 96.0235 436.364 92.7973 440.497 88.6642L437.668 85.8358ZM423.854 94.6375C418.382 96.7785 411.972 97.875 404.583 97.875V101.875C412.36 101.875 419.283 100.721 425.311 98.3625L423.854 94.6375ZM404.583 97.875C397.449 97.875 390.792 96.8216 384.597 94.7301L383.318 98.5199C389.957 100.762 397.05 101.875 404.583 101.875V97.875ZM384.627 94.7404C378.514 92.5688 373.149 89.4818 368.513 85.4852L365.902 88.5148C370.932 92.8515 376.734 96.1812 383.288 98.5096L384.627 94.7404ZM368.526 85.4965C364.003 81.5282 360.464 76.6838 357.91 70.9377L354.255 72.5623C357.034 78.8162 360.912 84.1384 365.889 88.5035L368.526 85.4965ZM357.914 70.947C355.374 65.153 354.083 58.5576 354.083 51.125H350.083C350.083 59.0257 351.457 66.1804 354.251 72.553L357.914 70.947ZM354.083 51.125C354.083 43.6917 355.375 37.1423 357.91 31.4373L354.255 29.8127C351.457 36.1077 350.083 43.225 350.083 51.125H354.083ZM357.905 31.4488C360.541 25.6181 364.161 20.7327 368.763 16.7648L366.152 13.7352C361.088 18.1006 357.124 23.4652 354.26 29.8012L357.905 31.4488ZM368.763 16.7648C373.385 12.7806 378.819 9.73775 385.09 7.64736L383.825 3.85263C377.096 6.09558 371.197 9.38611 366.152 13.7352L368.763 16.7648ZM385.112 7.63997C391.379 5.47065 398.238 4.37499 405.708 4.37499V0.374994C397.844 0.374994 390.536 1.52934 383.803 3.86002L385.112 7.63997ZM405.708 4.37499C415.501 4.37499 423.886 5.92612 430.915 8.96112L432.5 5.28887C424.862 1.99054 415.914 0.374994 405.708 0.374994V4.37499ZM430.932 8.96866C438.001 11.9408 443.64 16.048 447.91 21.2665L451.005 18.7335C446.275 12.952 440.08 8.47581 432.483 5.28133L430.932 8.96866ZM447.921 21.2804C452.271 26.5003 454.952 32.4537 455.981 39.1774L459.935 38.5726C458.796 31.1296 455.811 24.4997 450.994 18.7196L447.921 21.2804ZM457.958 36.875H436.583V40.875H457.958V36.875ZM438.537 38.4501C437.619 34.2295 435.589 30.5871 432.475 27.5648L429.69 30.4352C432.242 32.9129 433.879 35.8539 434.628 39.2999L438.537 38.4501ZM432.497 27.5858C429.498 24.5867 425.68 22.3164 421.112 20.735L419.803 24.515C423.901 25.9336 427.167 27.9133 429.668 30.4142L432.497 27.5858ZM421.123 20.739C416.615 19.148 411.466 18.375 405.708 18.375V22.375C411.116 22.375 415.8 23.102 419.792 24.511L421.123 20.739ZM405.708 18.375C398.88 18.375 392.853 19.6286 387.688 22.2111L389.477 25.7889C393.978 23.5381 399.368 22.375 405.708 22.375V18.375ZM387.701 22.2049C382.596 24.7125 378.593 28.4458 375.729 33.3692L379.186 35.3808C381.655 31.1376 385.069 27.9542 389.464 25.7951L387.701 22.2049ZM375.715 33.393C372.926 38.3424 371.583 44.2828 371.583 51.125H375.583C375.583 44.8005 376.823 39.5742 379.2 35.357L375.715 33.393ZM371.583 51.125C371.583 57.9886 373.018 63.981 375.984 69.0154L379.431 66.9846C376.897 62.6857 375.583 57.428 375.583 51.125H371.583ZM375.984 69.0154C378.942 74.0341 383.158 77.8808 388.575 80.5447L390.34 76.9553C385.59 74.6192 381.973 71.2992 379.431 66.9846L375.984 69.0154ZM388.599 80.5563C394.005 83.1263 400.31 84.375 407.458 84.375V80.375C400.771 80.375 395.077 79.2071 390.316 76.9437L388.599 80.5563ZM407.458 84.375C414.41 84.375 420.594 83.3023 425.966 81.1006L424.449 77.3994C419.655 79.3643 414.005 80.375 407.458 80.375V84.375ZM425.992 81.0898C431.347 78.8074 435.643 75.6089 438.799 71.461L435.616 69.039C432.939 72.5577 429.235 75.3592 424.423 77.4102L425.992 81.0898ZM438.795 71.4661C442.05 67.2168 443.882 62.2155 444.326 56.5308L440.339 56.2192C439.949 61.2012 438.365 65.4499 435.62 69.0338L438.795 71.4661ZM442.115 58.3631L451.24 59.3631L451.675 55.3869L442.55 54.3869L442.115 58.3631ZM412.333 66V50.625H408.333V66H412.333ZM410.333 52.625H458.958V48.625H410.333V52.625ZM456.958 50.625V98H460.958V50.625H456.958ZM458.958 96H443.708V100H458.958V96ZM445.702 97.8491L442.827 59.8491L438.838 60.1509L441.713 98.1509L445.702 97.8491ZM439.217 61.1783L443.591 67.1783L446.824 64.8217L442.449 58.8217L439.217 61.1783ZM445.208 64H410.333V68H445.208V64ZM562.842 84L563.144 85.9771L566.434 85.4752L564.446 82.8056L562.842 84ZM555.467 85.125H553.467V87.4532L555.769 87.1021L555.467 85.125ZM555.467 4.24999V2.24999H553.467V4.24999H555.467ZM576.092 4.24999H578.092V2.24999H576.092V4.24999ZM576.092 98V100H578.092V98H576.092ZM549.217 98L547.611 99.1916L548.211 100H549.217V98ZM489.217 17.125L488.911 15.1487L485.638 15.6565L487.611 18.3166L489.217 17.125ZM496.467 16H498.467V13.6657L496.161 14.0237L496.467 16ZM496.467 98V100H498.467V98H496.467ZM475.967 98H473.967V100H475.967V98ZM475.967 4.24999V2.24999H473.967V4.24999H475.967ZM503.467 4.24999L505.071 3.05563L504.472 2.24999H503.467V4.24999ZM562.541 82.0229L555.166 83.1479L555.769 87.1021L563.144 85.9771L562.541 82.0229ZM557.467 85.125V4.24999H553.467V85.125H557.467ZM555.467 6.24999H576.092V2.24999H555.467V6.24999ZM574.092 4.24999V98H578.092V4.24999H574.092ZM576.092 96H549.217V100H576.092V96ZM550.824 96.8084L490.824 15.9334L487.611 18.3166L547.611 99.1916L550.824 96.8084ZM489.524 19.1013L496.774 17.9763L496.161 14.0237L488.911 15.1487L489.524 19.1013ZM494.467 16V98H498.467V16H494.467ZM496.467 96H475.967V100H496.467V96ZM477.967 98V4.24999H473.967V98H477.967ZM475.967 6.24999H503.467V2.24999H475.967V6.24999ZM501.863 5.44435L561.238 85.1944L564.446 82.8056L505.071 3.05563L501.863 5.44435ZM622.212 67.375V65.375H620.107L620.215 67.4774L622.212 67.375ZM643.712 67.375L645.688 67.0631L645.421 65.375H643.712V67.375ZM647.837 75.75L646.374 77.1128L646.398 77.139L646.423 77.1642L647.837 75.75ZM657.087 81.25L656.43 83.139L656.455 83.1475L656.479 83.1553L657.087 81.25ZM688.087 80L688.968 81.7958L688.975 81.7924L688.982 81.7889L688.087 80ZM690.837 64.125L689.702 65.7714L689.734 65.7937L689.767 65.8146L690.837 64.125ZM677.212 60.5L676.989 62.4874L676.989 62.4875L677.212 60.5ZM658.337 58.375L658.561 56.3875L658.555 56.3869L658.337 58.375ZM631.837 49.875L630.574 51.425L630.586 51.4356L630.6 51.446L631.837 49.875ZM629.087 15.75L627.561 14.4581L627.553 14.4667L627.546 14.4755L629.087 15.75ZM644.462 5.87499L645.109 7.76751L645.12 7.76386L645.131 7.76009L644.462 5.87499ZM690.837 6.25L690.123 8.11787L690.133 8.12174L690.143 8.12549L690.837 6.25ZM706.962 16.875L705.456 18.1901L705.462 18.1969L705.468 18.2037L706.962 16.875ZM713.462 32.75V34.75H715.575L715.459 32.6406L713.462 32.75ZM691.962 32.75L689.985 33.0496L690.243 34.75H691.962V32.75ZM688.212 25.625L686.77 27.0101L686.798 27.0395L686.827 27.0678L688.212 25.625ZM679.837 20.875L679.218 22.7767L679.238 22.7833L679.259 22.7894L679.837 20.875ZM651.087 22.125L650.193 20.3361L651.087 22.125ZM648.587 37.25L647.464 38.9049L647.498 38.9278L647.533 38.9493L648.587 37.25ZM661.212 40.625L660.964 42.6096L660.972 42.6105L661.212 40.625ZM680.837 43L680.597 44.9855L680.612 44.9873L680.627 44.9889L680.837 43ZM701.462 47.5L700.704 49.3506L700.722 49.3581L700.74 49.3651L701.462 47.5ZM712.462 55.625L710.773 56.6961L710.783 56.7106L710.792 56.725L712.462 55.625ZM710.087 85.125L708.531 83.869L708.528 83.8722L710.087 85.125ZM645.587 95.875L644.864 97.7394L644.873 97.7431L644.883 97.7467L645.587 95.875ZM628.837 84.5L627.299 85.7778L627.304 85.7843L627.31 85.7907L628.837 84.5ZM622.212 69.375H643.712V65.375H622.212V69.375ZM641.737 67.6869C642.301 71.2594 643.861 74.4139 646.374 77.1128L649.301 74.3872C647.314 72.2528 646.124 69.824 645.688 67.0631L641.737 67.6869ZM646.423 77.1642C649.013 79.7542 652.376 81.7289 656.43 83.139L657.744 79.361C654.132 78.1045 651.328 76.4124 649.252 74.3358L646.423 77.1642ZM656.479 83.1553C660.633 84.4809 665.344 85.125 670.587 85.125V81.125C665.664 81.125 661.375 80.5191 657.695 79.3447L656.479 83.1553ZM670.587 85.125C678.154 85.125 684.332 84.0683 688.968 81.7958L687.207 78.2042C683.343 80.0983 677.854 81.125 670.587 81.125V85.125ZM688.982 81.7889C693.78 79.39 696.587 75.803 696.587 71H692.587C692.587 73.8637 691.062 76.2767 687.193 78.2111L688.982 81.7889ZM696.587 71C696.587 67.3262 694.996 64.3915 691.908 62.4354L689.767 65.8146C691.679 67.0252 692.587 68.6738 692.587 71H696.587ZM691.973 62.4786C689.107 60.5021 684.111 59.2635 677.436 58.5125L676.989 62.4875C683.647 63.2365 687.734 64.4146 689.702 65.7714L691.973 62.4786ZM677.436 58.5126L658.561 56.3876L658.114 60.3624L676.989 62.4874L677.436 58.5126ZM658.555 56.3869C646.517 55.0677 638.135 52.2902 633.075 48.304L630.6 51.446C636.54 56.1265 645.824 59.0157 658.12 60.3631L658.555 56.3869ZM633.101 48.325C628.211 44.3371 625.712 38.8144 625.712 31.5H621.712C621.712 39.8523 624.631 46.5795 630.574 51.425L633.101 48.325ZM625.712 31.5C625.712 25.7505 627.371 20.9639 630.629 17.0245L627.546 14.4755C623.637 19.2028 621.712 24.9162 621.712 31.5H625.712ZM630.614 17.0419C634 13.0408 638.791 9.92687 645.109 7.76751L643.816 3.98247C636.967 6.32311 631.508 9.79254 627.561 14.4581L630.614 17.0419ZM645.131 7.76009C651.449 5.52054 658.963 4.37499 667.712 4.37499V0.374994C658.628 0.374994 650.642 1.56278 643.794 3.9899L645.131 7.76009ZM667.712 4.37499C676.182 4.37499 683.641 5.63737 690.123 8.11787L691.552 4.38212C684.534 1.69596 676.576 0.374994 667.712 0.374994V4.37499ZM690.143 8.12549C696.637 10.5307 701.712 13.9009 705.456 18.1901L708.469 15.5599C704.213 10.6824 698.538 6.96926 691.532 4.3745L690.143 8.12549ZM705.468 18.2037C709.163 22.3614 711.156 27.2218 711.465 32.8594L715.459 32.6406C715.102 26.1116 712.762 20.3886 708.457 15.5463L705.468 18.2037ZM713.462 30.75H691.962V34.75H713.462V30.75ZM693.94 32.4504C693.454 29.2468 691.986 26.475 689.597 24.1822L686.827 27.0678C688.606 28.775 689.637 30.7532 689.985 33.0496L693.94 32.4504ZM689.655 24.2399C687.357 21.8461 684.233 20.1146 680.416 18.9606L679.259 22.7894C682.608 23.8021 685.068 25.2372 686.77 27.0101L689.655 24.2399ZM680.457 18.9733C676.626 17.7261 672.2 17.125 667.212 17.125V21.125C671.892 21.125 675.882 21.6906 679.218 22.7767L680.457 18.9733ZM667.212 17.125C660.296 17.125 654.576 18.1446 650.193 20.3361L651.982 23.9138C655.599 22.1054 660.628 21.125 667.212 21.125V17.125ZM650.193 20.3361C647.981 21.4422 646.191 22.8435 644.953 24.5966C643.701 26.3706 643.087 28.4037 643.087 30.625H647.087C647.087 29.1796 647.474 27.9627 648.221 26.9034C648.984 25.8231 650.194 24.8078 651.982 23.9138L650.193 20.3361ZM643.087 30.625C643.087 34.1174 644.579 36.9473 647.464 38.9049L649.71 35.595C647.929 34.3861 647.087 32.7993 647.087 30.625H643.087ZM647.533 38.9493C650.344 40.6943 654.929 41.8552 660.964 42.6096L661.46 38.6404C655.496 37.8948 651.664 36.8057 649.642 35.5507L647.533 38.9493ZM660.972 42.6105L680.597 44.9855L681.078 41.0145L661.453 38.6395L660.972 42.6105ZM680.627 44.9889C689.202 45.8959 695.867 47.3684 700.704 49.3506L702.221 45.6494C696.891 43.4649 689.806 41.9375 681.048 41.0111L680.627 44.9889ZM700.74 49.3651C705.653 51.2667 708.907 53.7528 710.773 56.6961L714.151 54.5539C711.685 50.6638 707.605 47.7333 702.184 45.6349L700.74 49.3651ZM710.792 56.725C712.774 59.7341 713.837 63.6561 713.837 68.625H717.837C717.837 63.0939 716.651 58.3493 714.133 54.525L710.792 56.725ZM713.837 68.625C713.837 74.4298 712.07 79.4838 708.531 83.869L711.644 86.381C715.772 81.2662 717.837 75.3202 717.837 68.625H713.837ZM708.528 83.8722C705.047 88.2052 700.078 91.6444 693.505 94.1292L694.92 97.8708C702.014 95.1889 707.628 91.3782 711.646 86.3778L708.528 83.8722ZM693.505 94.1292C686.947 96.6084 679.197 97.875 670.212 97.875V101.875C679.562 101.875 687.811 100.558 694.92 97.8708L693.505 94.1292ZM670.212 97.875C661.066 97.875 653.104 96.5679 646.292 94.0033L644.883 97.7467C652.237 100.515 660.693 101.875 670.212 101.875V97.875ZM646.311 94.0106C639.477 91.3574 634.193 87.7405 630.365 83.2093L627.31 85.7907C631.648 90.9261 637.531 94.8926 644.864 97.7394L646.311 94.0106ZM630.376 83.2222C626.574 78.6441 624.521 73.3501 624.21 67.2726L620.215 67.4774C620.57 74.3999 622.934 80.5226 627.299 85.7778L630.376 83.2222ZM751.493 93.75L750.598 95.5389L750.606 95.5425L751.493 93.75ZM732.368 76.75L730.672 77.81L730.677 77.8187L732.368 76.75ZM732.368 25.625L734.058 26.6937L734.064 26.685L732.368 25.625ZM751.493 8.5L750.605 6.70752L750.598 6.71114L751.493 8.5ZM808.868 8.5L807.973 10.2889L807.981 10.2925L808.868 8.5ZM828.118 25.625L826.422 26.685L826.427 26.6937L828.118 25.625ZM828.118 76.75L829.808 77.8187L829.814 77.81L828.118 76.75ZM808.868 93.75L807.98 91.9575L807.973 91.9611L808.868 93.75ZM797.868 77.375L796.997 75.5743L796.985 75.5801L797.868 77.375ZM809.368 67L807.661 65.9571L807.654 65.9687L807.647 65.9804L809.368 67ZM809.368 35.25L807.647 36.2696L807.654 36.2813L807.661 36.2929L809.368 35.25ZM797.868 24.875L796.985 26.6699L796.997 26.6757L797.868 24.875ZM750.993 35.25L749.286 34.2071L749.279 34.2187L749.272 34.2304L750.993 35.25ZM750.993 67L749.272 68.0196L749.279 68.0313L749.286 68.0429L750.993 67ZM780.243 97.875C769.577 97.875 760.307 95.8812 752.38 91.9575L750.606 95.5425C759.178 99.7854 769.075 101.875 780.243 101.875V97.875ZM752.387 91.9611C744.525 88.0299 738.434 82.6031 734.058 75.6813L730.677 77.8187C735.468 85.3969 742.127 91.3035 750.598 95.5389L752.387 91.9611ZM734.064 75.69C729.703 68.7137 727.493 60.5492 727.493 51.125H723.493C723.493 61.2008 725.865 70.1196 730.672 77.81L734.064 75.69ZM727.493 51.125C727.493 41.7003 729.704 33.5818 734.058 26.6937L730.677 24.5563C725.865 32.1682 723.493 41.0497 723.493 51.125H727.493ZM734.064 26.685C738.441 19.6814 744.53 14.2172 752.387 10.2889L750.598 6.71114C742.122 10.9495 735.461 16.9019 730.672 24.565L734.064 26.685ZM752.38 10.2925C760.307 6.36878 769.577 4.37499 780.243 4.37499V0.374994C769.075 0.374994 759.178 2.46455 750.605 6.70754L752.38 10.2925ZM780.243 4.37499C790.909 4.37499 800.134 6.36899 807.973 10.2889L809.762 6.71114C801.268 2.46433 791.41 0.374994 780.243 0.374994V4.37499ZM807.981 10.2925C815.921 14.2224 822.048 19.6865 826.422 26.685L829.814 24.565C825.021 16.8968 818.315 10.9443 809.755 6.70754L807.981 10.2925ZM826.427 26.6937C830.782 33.5818 832.993 41.7003 832.993 51.125H836.993C836.993 41.0497 834.62 32.1682 829.808 24.5563L826.427 26.6937ZM832.993 51.125C832.993 60.5492 830.782 68.7137 826.422 75.69L829.814 77.81C834.62 70.1196 836.993 61.2008 836.993 51.125H832.993ZM826.427 75.6813C822.055 82.5981 815.926 88.0247 807.981 91.9575L809.755 95.5425C818.309 91.3086 825.014 85.4019 829.808 77.8187L826.427 75.6813ZM807.973 91.9611C800.134 95.881 790.909 97.875 780.243 97.875V101.875C791.41 101.875 801.268 99.7857 809.762 95.5389L807.973 91.9611ZM780.243 83C787.308 83 793.499 81.7507 798.75 79.1699L796.985 75.5801C792.403 77.8326 786.844 79 780.243 79V83ZM798.738 79.1757C804.069 76.599 808.208 72.8792 811.088 68.0196L807.647 65.9804C805.193 70.1208 801.666 73.3177 796.997 75.5743L798.738 79.1757ZM811.074 68.0429C814.044 63.1832 815.493 57.5188 815.493 51.125H811.493C811.493 56.8979 810.191 61.8168 807.661 65.9571L811.074 68.0429ZM815.493 51.125C815.493 44.7312 814.044 39.0668 811.074 34.2071L807.661 36.2929C810.191 40.4332 811.493 45.3521 811.493 51.125H815.493ZM811.088 34.2304C808.208 29.3708 804.069 25.651 798.738 23.0743L796.997 26.6757C801.666 28.9323 805.193 32.1292 807.647 36.2696L811.088 34.2304ZM798.75 23.0801C793.499 20.4993 787.308 19.25 780.243 19.25V23.25C786.844 23.25 792.403 24.4174 796.985 26.6699L798.75 23.0801ZM780.243 19.25C773.255 19.25 767.071 20.5012 761.747 23.0743L763.488 26.6757C768.164 24.4154 773.73 23.25 780.243 23.25V19.25ZM761.747 23.0743C756.421 25.6487 752.247 29.3617 749.286 34.2071L752.699 36.2929C755.238 32.1383 758.814 28.9346 763.488 26.6757L761.747 23.0743ZM749.272 34.2304C746.395 39.0863 744.993 44.7421 744.993 51.125H748.993C748.993 45.3412 750.258 40.4137 752.713 36.2696L749.272 34.2304ZM744.993 51.125C744.993 57.5079 746.395 63.1637 749.272 68.0196L752.713 65.9804C750.258 61.8363 748.993 56.9088 748.993 51.125H744.993ZM749.286 68.0429C752.247 72.8883 756.421 76.6012 761.747 79.1757L763.488 75.5743C758.814 73.3154 755.238 70.1117 752.699 65.9571L749.286 68.0429ZM761.747 79.1757C767.071 81.7487 773.255 83 780.243 83V79C773.73 79 768.164 77.8346 763.488 75.5743L761.747 79.1757ZM872.5 69.75L870.736 70.6933L872.5 69.75ZM880.875 78.125L879.917 79.8808L879.94 79.8936L879.964 79.9059L880.875 78.125ZM907.875 78.125L908.801 79.8975L908.817 79.8893L908.832 79.8808L907.875 78.125ZM916.25 69.75L918.013 70.6933L916.25 69.75ZM919.125 4.24999V2.24999H917.125V4.24999H919.125ZM940.375 4.24999H942.375V2.24999H940.375V4.24999ZM934.625 80L936.329 81.0457L936.336 81.0356L934.625 80ZM918.5 94.625L919.403 96.4095L918.5 94.625ZM870.25 94.625L869.338 96.4051L869.346 96.4095L870.25 94.625ZM854.125 80L852.414 81.0356L852.422 81.0489L852.43 81.062L854.125 80ZM848.375 4.24999V2.24999H846.375V4.24999H848.375ZM869.625 4.24999H871.625V2.24999H869.625V4.24999ZM867.625 56.875C867.625 62.1293 868.632 66.7603 870.736 70.6933L874.263 68.8067C872.533 65.5731 871.625 61.6207 871.625 56.875H867.625ZM870.736 70.6933C872.842 74.6301 875.918 77.6997 879.917 79.8808L881.832 76.3692C878.497 74.5503 875.991 72.0365 874.263 68.8067L870.736 70.6933ZM879.964 79.9059C884.057 81.9977 888.884 83 894.375 83V79C889.365 79 885.192 78.0856 881.785 76.3441L879.964 79.9059ZM894.375 83C899.94 83 904.778 82.0005 908.801 79.8975L906.948 76.3525C903.638 78.0828 899.476 79 894.375 79V83ZM908.832 79.8808C912.831 77.6997 915.907 74.6301 918.013 70.6933L914.486 68.8067C912.758 72.0365 910.252 74.5503 906.917 76.3692L908.832 79.8808ZM918.013 70.6933C920.117 66.7603 921.125 62.1293 921.125 56.875H917.125C917.125 61.6207 916.216 65.5731 914.486 68.8067L918.013 70.6933ZM921.125 56.875V4.24999H917.125V56.875H921.125ZM919.125 6.24999H940.375V2.24999H919.125V6.24999ZM938.375 4.24999V57.875H942.375V4.24999H938.375ZM938.375 57.875C938.375 65.9776 936.533 72.9844 932.914 78.9644L936.336 81.0356C940.383 74.3489 942.375 66.6057 942.375 57.875H938.375ZM932.92 78.9543C929.291 84.8702 924.202 89.4977 917.596 92.8405L919.403 96.4095C926.63 92.7523 932.291 87.6298 936.329 81.0457L932.92 78.9543ZM917.596 92.8405C911.007 96.1751 903.284 97.875 894.375 97.875V101.875C903.798 101.875 912.159 100.075 919.403 96.4095L917.596 92.8405ZM894.375 97.875C885.465 97.875 877.742 96.1751 871.153 92.8405L869.346 96.4095C876.59 100.075 884.951 101.875 894.375 101.875V97.875ZM871.161 92.8449C864.635 89.5023 859.536 84.8696 855.819 78.938L852.43 81.062C856.546 87.6304 862.197 92.7477 869.338 96.4051L871.161 92.8449ZM855.836 78.9644C852.216 72.9844 850.375 65.9776 850.375 57.875H846.375C846.375 66.6057 848.366 74.3489 852.414 81.0356L855.836 78.9644ZM850.375 57.875V4.24999H846.375V57.875H850.375ZM848.375 6.24999H869.625V2.24999H848.375V6.24999ZM867.625 4.24999V56.875H871.625V4.24999H867.625ZM973.139 45.875V43.875H971.139V45.875H973.139ZM1020.51 42.625L1021.75 44.196L1021.76 44.1912L1020.51 42.625ZM1020.51 24.25L1019.28 25.821L1019.29 25.8299L1019.3 25.8387L1020.51 24.25ZM970.014 21L968.516 19.6745L965.573 23H970.014V21ZM979.639 10.125H981.639V4.84758L978.141 8.79948L979.639 10.125ZM979.639 98V100H981.639V98H979.639ZM958.389 98H956.389V100H958.389V98ZM958.389 4.24999V2.24999H956.389V4.24999H958.389ZM1029.76 8L1028.89 9.80031L1028.9 9.80604L1028.92 9.81162L1029.76 8ZM1041.89 18.125L1043.55 17.0082V17.0082L1041.89 18.125ZM1041.89 48.5L1043.55 49.6167L1041.89 48.5ZM1029.76 58.75L1030.61 60.5616L1030.62 60.556L1030.64 60.5503L1029.76 58.75ZM973.139 62.375H971.139V64.375H973.139V62.375ZM989.389 54.125V52.125H985.254L987.821 55.3667L989.389 54.125ZM1013.64 54.125L1015.2 52.8697L1014.6 52.125H1013.64V54.125ZM1049.01 98V100H1053.2L1050.57 96.7447L1049.01 98ZM1024.14 98L1022.57 99.2418L1023.17 100H1024.14V98ZM973.139 47.875H1009.26V43.875H973.139V47.875ZM1009.26 47.875C1014.3 47.875 1018.54 46.7251 1021.75 44.196L1019.28 41.054C1016.99 42.8582 1013.72 43.875 1009.26 43.875V47.875ZM1021.76 44.1912C1025.11 41.5273 1026.76 37.844 1026.76 33.375H1022.76C1022.76 36.7393 1021.58 39.2227 1019.27 41.0588L1021.76 44.1912ZM1026.76 33.375C1026.76 28.9057 1025.11 25.2471 1021.73 22.6613L1019.3 25.8387C1021.58 27.5862 1022.76 30.011 1022.76 33.375H1026.76ZM1021.75 22.679C1018.54 20.1498 1014.3 19 1009.26 19V23C1013.72 23 1016.99 24.0168 1019.28 25.821L1021.75 22.679ZM1009.26 19H970.014V23H1009.26V19ZM971.512 22.3255L981.137 11.4505L978.141 8.79948L968.516 19.6745L971.512 22.3255ZM977.639 10.125V98H981.639V10.125H977.639ZM979.639 96H958.389V100H979.639V96ZM960.389 98V4.24999H956.389V98H960.389ZM958.389 6.24999H1011.76V2.24999H958.389V6.24999ZM1011.76 6.24999C1018.35 6.24999 1024.04 7.45445 1028.89 9.80031L1030.64 6.19968C1025.15 3.54554 1018.84 2.24999 1011.76 2.24999V6.24999ZM1028.92 9.81162C1033.79 12.0892 1037.53 15.2367 1040.23 19.2417L1043.55 17.0082C1040.41 12.3466 1036.08 8.74415 1030.61 6.18838L1028.92 9.81162ZM1040.23 19.2417C1042.9 23.2072 1044.26 27.8913 1044.26 33.375H1048.26C1048.26 27.192 1046.71 21.7095 1043.55 17.0082L1040.23 19.2417ZM1044.26 33.375C1044.26 38.7689 1042.9 43.413 1040.23 47.3832L1043.55 49.6167C1046.71 44.9203 1048.26 39.4811 1048.26 33.375H1044.26ZM1040.23 47.3832C1037.53 51.3946 1033.77 54.5881 1028.89 56.9497L1030.64 60.5503C1036.09 57.9119 1040.41 54.2721 1043.55 49.6167L1040.23 47.3832ZM1028.92 56.9384C1024.06 59.2088 1018.36 60.375 1011.76 60.375V64.375C1018.83 64.375 1025.13 63.1245 1030.61 60.5616L1028.92 56.9384ZM1011.76 60.375H973.139V64.375H1011.76V60.375ZM975.139 62.375V45.875H971.139V62.375H975.139ZM989.389 56.125H1013.64V52.125H989.389V56.125ZM1012.08 55.3803L1047.46 99.2553L1050.57 96.7447L1015.2 52.8697L1012.08 55.3803ZM1049.01 96H1024.14V100H1049.01V96ZM1025.71 96.7582L990.957 52.8833L987.821 55.3667L1022.57 99.2418L1025.71 96.7582ZM1162.79 59.875L1164.78 60.105L1165.04 57.875H1162.79V59.875ZM1154.42 80.875L1152.83 79.6577L1152.83 79.6609L1154.42 80.875ZM1136.17 94.875L1135.36 93.0441L1135.36 93.0474L1136.17 94.875ZM1082.29 93.75L1081.39 95.5314L1081.39 95.5352L1082.29 93.75ZM1063.54 76.75L1061.84 77.796L1061.85 77.8047L1063.54 76.75ZM1063.54 25.625L1065.24 26.6797L1065.25 26.671L1063.54 25.625ZM1082.29 8.5L1081.39 6.71482L1081.39 6.71863L1082.29 8.5ZM1136.17 7.375L1135.36 9.20264L1135.36 9.20592L1136.17 7.375ZM1154.42 21.375L1152.83 22.5891L1152.84 22.596L1152.84 22.6029L1154.42 21.375ZM1162.79 42.375V44.375H1165.04L1164.78 42.1473L1162.79 42.375ZM1141.42 42.375L1139.45 42.7458L1139.76 44.375H1141.42V42.375ZM1136.04 31L1134.52 32.2919L1134.53 32.3017L1134.53 32.3114L1136.04 31ZM1125.42 23.5L1124.67 25.3545V25.3545L1125.42 23.5ZM1093.17 24.625L1094.08 26.4076L1094.09 26.4014L1093.17 24.625ZM1082.17 35.125L1083.9 36.1207L1083.91 36.1139L1083.91 36.107L1082.17 35.125ZM1082.17 67.25L1080.43 68.232L1080.43 68.2389L1080.43 68.2457L1082.17 67.25ZM1093.17 77.75L1092.24 79.5198L1092.26 79.5295L1092.28 79.5389L1093.17 77.75ZM1125.42 78.875L1126.14 80.7417L1126.15 80.7357L1126.17 80.7295L1125.42 78.875ZM1136.04 71.5L1137.55 72.8114L1137.56 72.8017L1137.57 72.7919L1136.04 71.5ZM1141.42 59.875V57.875H1139.76L1139.45 59.5108L1141.42 59.875ZM1160.81 59.645C1159.93 67.2173 1157.27 73.8729 1152.83 79.6577L1156.01 82.0923C1160.9 75.7105 1163.82 68.3661 1164.78 60.105L1160.81 59.645ZM1152.83 79.6609C1148.47 85.3668 1142.67 89.8332 1135.36 93.0441L1136.97 96.7059C1144.84 93.2501 1151.2 88.3832 1156.01 82.0891L1152.83 79.6609ZM1135.36 93.0474C1128.15 96.2487 1119.86 97.875 1110.42 97.875V101.875C1120.32 101.875 1129.18 100.168 1136.98 96.7026L1135.36 93.0474ZM1110.42 97.875C1100.01 97.875 1090.95 95.8839 1083.2 91.9648L1081.39 95.5352C1089.8 99.7828 1099.49 101.875 1110.42 101.875V97.875ZM1083.2 91.9686C1075.51 88.0419 1069.54 82.619 1065.24 75.6953L1061.85 77.8047C1066.55 85.381 1073.08 91.2914 1081.39 95.5314L1083.2 91.9686ZM1065.25 75.704C1060.97 68.7257 1058.79 60.5561 1058.79 51.125H1054.79C1054.79 61.1939 1057.12 70.1076 1061.84 77.796L1065.25 75.704ZM1058.79 51.125C1058.79 41.6934 1060.97 33.5698 1065.24 26.6797L1061.85 24.5703C1057.12 32.1802 1054.79 41.0566 1054.79 51.125H1058.79ZM1065.25 26.671C1069.55 19.6654 1075.52 14.2051 1083.2 10.2814L1081.39 6.71863C1073.07 10.9615 1066.54 16.9179 1061.84 24.579L1065.25 26.671ZM1083.2 10.2852C1090.95 6.36613 1100.01 4.37499 1110.42 4.37499V0.374994C1099.49 0.374994 1089.8 2.46719 1081.39 6.71484L1083.2 10.2852ZM1110.42 4.37499C1119.86 4.37499 1128.15 6.00133 1135.36 9.20262L1136.98 5.54737C1129.18 2.08199 1120.32 0.374994 1110.42 0.374994V4.37499ZM1135.36 9.20592C1142.67 12.4168 1148.47 16.8832 1152.83 22.5891L1156.01 20.1609C1151.2 13.8668 1144.84 8.99989 1136.97 5.54407L1135.36 9.20592ZM1152.84 22.6029C1157.27 28.2958 1159.93 34.9447 1160.81 42.6027L1164.78 42.1473C1163.83 33.8053 1160.9 26.4542 1156 20.1471L1152.84 22.6029ZM1162.79 40.375H1141.42V44.375H1162.79V40.375ZM1143.38 42.0042C1142.49 37.265 1140.55 33.1421 1137.55 29.6886L1134.53 32.3114C1137.04 35.1912 1138.68 38.6516 1139.45 42.7458L1143.38 42.0042ZM1137.57 29.7081C1134.59 26.1866 1130.77 23.505 1126.17 21.6455L1124.67 25.3545C1128.73 26.995 1132 29.3134 1134.52 32.2919L1137.57 29.7081ZM1126.17 21.6455C1121.55 19.78 1116.24 18.875 1110.29 18.875V22.875C1115.85 22.875 1120.62 23.7199 1124.67 25.3545L1126.17 21.6455ZM1110.29 18.875C1103.46 18.875 1097.42 20.1739 1092.25 22.8486L1094.09 26.4014C1098.58 24.0761 1103.96 22.875 1110.29 22.875V18.875ZM1092.26 22.8424C1087.17 25.4354 1083.21 29.2116 1080.43 34.143L1083.91 36.107C1086.3 31.8717 1089.67 28.648 1094.08 26.4076L1092.26 22.8424ZM1080.43 34.1293C1077.65 38.9849 1076.29 44.675 1076.29 51.125H1080.29C1080.29 45.2417 1081.52 40.2651 1083.9 36.1207L1080.43 34.1293ZM1076.29 51.125C1076.29 57.5761 1077.65 63.301 1080.43 68.232L1083.91 66.268C1081.52 62.0323 1080.29 57.0072 1080.29 51.125H1076.29ZM1080.43 68.2457C1083.21 73.0864 1087.16 76.8496 1092.24 79.5198L1094.1 75.9802C1089.67 73.6504 1086.29 70.4136 1083.9 66.2543L1080.43 68.2457ZM1092.28 79.5389C1097.44 82.1214 1103.47 83.375 1110.29 83.375V79.375C1103.95 79.375 1098.57 78.2119 1094.06 75.9611L1092.28 79.5389ZM1110.29 83.375C1116.23 83.375 1121.53 82.5147 1126.14 80.7417L1124.7 77.0083C1120.64 78.5686 1115.86 79.375 1110.29 79.375V83.375ZM1126.17 80.7295C1130.76 78.8748 1134.57 76.2429 1137.55 72.8114L1134.53 70.1886C1132.01 73.0905 1128.74 75.3752 1124.67 77.0205L1126.17 80.7295ZM1137.57 72.7919C1140.56 69.2563 1142.49 65.0549 1143.39 60.2392L1139.45 59.5108C1138.68 63.6951 1137.03 67.2437 1134.52 70.2081L1137.57 72.7919ZM1141.42 61.875H1162.79V57.875H1141.42V61.875ZM1176.65 4.24999V2.24999H1174.65V4.24999H1176.65ZM1197.9 4.24999H1199.9V2.24999H1197.9V4.24999ZM1197.9 98V100H1199.9V98H1197.9ZM1176.65 98H1174.65V100H1176.65V98ZM1176.65 6.24999H1197.9V2.24999H1176.65V6.24999ZM1195.9 4.24999V98H1199.9V4.24999H1195.9ZM1197.9 96H1176.65V100H1197.9V96ZM1178.65 98V4.24999H1174.65V98H1178.65ZM1303.93 84L1304.23 85.9771L1307.52 85.4752L1305.54 82.8056L1303.93 84ZM1296.56 85.125H1294.56V87.4532L1296.86 87.1021L1296.56 85.125ZM1296.56 4.24999V2.24999H1294.56V4.24999H1296.56ZM1317.18 4.24999H1319.18V2.24999H1317.18V4.24999ZM1317.18 98V100H1319.18V98H1317.18ZM1290.31 98L1288.7 99.1916L1289.3 100H1290.31V98ZM1230.31 17.125L1230 15.1487L1226.73 15.6565L1228.7 18.3166L1230.31 17.125ZM1237.56 16H1239.56V13.6657L1237.25 14.0237L1237.56 16ZM1237.56 98V100H1239.56V98H1237.56ZM1217.06 98H1215.06V100H1217.06V98ZM1217.06 4.24999V2.24999H1215.06V4.24999H1217.06ZM1244.56 4.24999L1246.16 3.05563L1245.56 2.24999H1244.56V4.24999ZM1303.63 82.0229L1296.25 83.1479L1296.86 87.1021L1304.23 85.9771L1303.63 82.0229ZM1298.56 85.125V4.24999H1294.56V85.125H1298.56ZM1296.56 6.24999H1317.18V2.24999H1296.56V6.24999ZM1315.18 4.24999V98H1319.18V4.24999H1315.18ZM1317.18 96H1290.31V100H1317.18V96ZM1291.91 96.8084L1231.91 15.9334L1228.7 18.3166L1288.7 99.1916L1291.91 96.8084ZM1230.61 19.1013L1237.86 17.9763L1237.25 14.0237L1230 15.1487L1230.61 19.1013ZM1235.56 16V98H1239.56V16H1235.56ZM1237.56 96H1217.06V100H1237.56V96ZM1219.06 98V4.24999H1215.06V98H1219.06ZM1217.06 6.24999H1244.56V2.24999H1217.06V6.24999ZM1242.95 5.44435L1302.33 85.1944L1305.54 82.8056L1246.16 3.05563L1242.95 5.44435ZM1431.19 57.375L1433.19 57.4044L1433.22 55.5851L1431.41 55.3869L1431.19 57.375ZM1427.82 73.625L1425.97 72.8515L1425.97 72.859L1425.97 72.8666L1427.82 73.625ZM1418.82 87.25L1420.23 88.6642L1420.24 88.6568L1420.25 88.6492L1418.82 87.25ZM1363.69 96.625L1363.02 98.5096L1363.04 98.5149L1363.05 98.5199L1363.69 96.625ZM1346.94 87L1345.62 88.5035L1345.63 88.5092L1345.64 88.5148L1346.94 87ZM1335.82 71.75L1333.99 72.553L1333.99 72.5623L1335.82 71.75ZM1335.82 30.625L1334 29.8011L1333.99 29.8127L1335.82 30.625ZM1347.19 15.25L1345.89 13.7352L1347.19 15.25ZM1364.19 5.75L1364.83 7.64736L1364.84 7.64373L1364.85 7.63997L1364.19 5.75ZM1411.44 7.12499L1410.65 8.96112L1410.66 8.96493L1410.67 8.96866L1411.44 7.12499ZM1429.19 20L1427.65 21.2665L1427.65 21.2734L1427.66 21.2804L1429.19 20ZM1437.69 38.875V40.875H1440.02L1439.67 38.5726L1437.69 38.875ZM1416.32 38.875L1414.36 39.2999L1414.71 40.875H1416.32V38.875ZM1410.82 29L1409.4 30.4142L1409.42 30.4248L1409.43 30.4352L1410.82 29ZM1400.19 22.625L1399.53 24.511L1399.54 24.515L1400.19 22.625ZM1368.32 24L1369.2 25.7952L1369.21 25.7889L1368.32 24ZM1357.19 34.375L1355.47 33.3692L1355.46 33.381L1355.45 33.393L1357.19 34.375ZM1357.44 68L1355.72 69.0154L1357.44 68ZM1369.19 78.75L1368.31 80.5447L1368.32 80.5506L1368.34 80.5563L1369.19 78.75ZM1404.94 79.25L1405.7 81.1006L1405.72 81.0953L1405.73 81.0898L1404.94 79.25ZM1416.94 70.25L1415.36 69.0338L1415.35 69.039L1416.94 70.25ZM1422.07 56.375L1422.29 54.3869L1420.24 54.1621L1420.07 56.2192L1422.07 56.375ZM1390.07 66H1388.07V68H1390.07V66ZM1390.07 50.625V48.625H1388.07V50.625H1390.07ZM1438.69 50.625H1440.69V48.625H1438.69V50.625ZM1438.69 98V100H1440.69V98H1438.69ZM1423.44 98L1421.45 98.1509L1421.59 100H1423.44V98ZM1420.57 60L1422.18 58.8217L1418.04 53.1432L1418.57 60.1509L1420.57 60ZM1424.94 66V68H1428.88L1426.56 64.8217L1424.94 66ZM1429.19 57.3456C1429.11 62.7596 1428.04 67.9235 1425.97 72.8515L1429.66 74.3985C1431.93 68.9932 1433.11 63.3237 1433.19 57.4044L1429.19 57.3456ZM1425.97 72.8666C1423.98 77.7065 1421.13 82.0316 1417.39 85.8508L1420.25 88.6492C1424.34 84.4684 1427.49 79.7102 1429.67 74.3834L1425.97 72.8666ZM1417.4 85.8358C1413.7 89.5361 1409.11 92.4765 1403.59 94.6375L1405.05 98.3625C1411.03 96.0235 1416.1 92.7973 1420.23 88.6642L1417.4 85.8358ZM1403.59 94.6375C1398.12 96.7785 1391.71 97.875 1384.32 97.875V101.875C1392.1 101.875 1399.02 100.721 1405.05 98.3625L1403.59 94.6375ZM1384.32 97.875C1377.19 97.875 1370.53 96.8216 1364.33 94.7301L1363.05 98.5199C1369.69 100.762 1376.79 101.875 1384.32 101.875V97.875ZM1364.36 94.7404C1358.25 92.5688 1352.89 89.4818 1348.25 85.4852L1345.64 88.5148C1350.67 92.8515 1356.47 96.1812 1363.02 98.5096L1364.36 94.7404ZM1348.26 85.4965C1343.74 81.5282 1340.2 76.6838 1337.65 70.9377L1333.99 72.5623C1336.77 78.8162 1340.65 84.1384 1345.62 88.5035L1348.26 85.4965ZM1337.65 70.947C1335.11 65.153 1333.82 58.5576 1333.82 51.125H1329.82C1329.82 59.0257 1331.19 66.1804 1333.99 72.553L1337.65 70.947ZM1333.82 51.125C1333.82 43.6917 1335.11 37.1423 1337.65 31.4373L1333.99 29.8127C1331.19 36.1077 1329.82 43.225 1329.82 51.125H1333.82ZM1337.64 31.4488C1340.28 25.6181 1343.9 20.7327 1348.5 16.7648L1345.89 13.7352C1340.82 18.1006 1336.86 23.4652 1334 29.8012L1337.64 31.4488ZM1348.5 16.7648C1353.12 12.7806 1358.56 9.73775 1364.83 7.64736L1363.56 3.85263C1356.83 6.09558 1350.93 9.38611 1345.89 13.7352L1348.5 16.7648ZM1364.85 7.63997C1371.11 5.47065 1377.97 4.37499 1385.44 4.37499V0.374994C1377.58 0.374994 1370.27 1.52934 1363.54 3.86002L1364.85 7.63997ZM1385.44 4.37499C1395.24 4.37499 1403.62 5.92612 1410.65 8.96112L1412.24 5.28887C1404.6 1.99054 1395.65 0.374994 1385.44 0.374994V4.37499ZM1410.67 8.96866C1417.74 11.9408 1423.38 16.048 1427.65 21.2665L1430.74 18.7335C1426.01 12.952 1419.82 8.47581 1412.22 5.28133L1410.67 8.96866ZM1427.66 21.2804C1432.01 26.5003 1434.69 32.4537 1435.72 39.1774L1439.67 38.5726C1438.53 31.1296 1435.55 24.4997 1430.73 18.7196L1427.66 21.2804ZM1437.69 36.875H1416.32V40.875H1437.69V36.875ZM1418.27 38.4501C1417.36 34.2295 1415.33 30.5871 1412.21 27.5648L1409.43 30.4352C1411.98 32.9129 1413.62 35.8539 1414.36 39.2999L1418.27 38.4501ZM1412.23 27.5858C1409.23 24.5867 1405.42 22.3164 1400.85 20.735L1399.54 24.515C1403.64 25.9336 1406.9 27.9133 1409.4 30.4142L1412.23 27.5858ZM1400.86 20.739C1396.35 19.148 1391.2 18.375 1385.44 18.375V22.375C1390.85 22.375 1395.54 23.102 1399.53 24.511L1400.86 20.739ZM1385.44 18.375C1378.62 18.375 1372.59 19.6286 1367.42 22.2111L1369.21 25.7889C1373.71 23.5381 1379.1 22.375 1385.44 22.375V18.375ZM1367.44 22.2049C1362.33 24.7125 1358.33 28.4458 1355.47 33.3692L1358.92 35.3808C1361.39 31.1376 1364.81 27.9542 1369.2 25.7951L1367.44 22.2049ZM1355.45 33.393C1352.66 38.3424 1351.32 44.2828 1351.32 51.125H1355.32C1355.32 44.8005 1356.56 39.5742 1358.94 35.357L1355.45 33.393ZM1351.32 51.125C1351.32 57.9886 1352.75 63.981 1355.72 69.0154L1359.17 66.9846C1356.63 62.6857 1355.32 57.428 1355.32 51.125H1351.32ZM1355.72 69.0154C1358.68 74.0341 1362.89 77.8808 1368.31 80.5447L1370.08 76.9553C1365.33 74.6192 1361.71 71.2992 1359.17 66.9846L1355.72 69.0154ZM1368.34 80.5563C1373.74 83.1263 1380.05 84.375 1387.19 84.375V80.375C1380.51 80.375 1374.81 79.2071 1370.05 76.9437L1368.34 80.5563ZM1387.19 84.375C1394.15 84.375 1400.33 83.3023 1405.7 81.1006L1404.19 77.3994C1399.39 79.3643 1393.74 80.375 1387.19 80.375V84.375ZM1405.73 81.0898C1411.08 78.8074 1415.38 75.6089 1418.54 71.461L1415.35 69.039C1412.67 72.5577 1408.97 75.3592 1404.16 77.4102L1405.73 81.0898ZM1418.53 71.4661C1421.79 67.2168 1423.62 62.2155 1424.06 56.5308L1420.07 56.2192C1419.69 61.2012 1418.1 65.4499 1415.36 69.0338L1418.53 71.4661ZM1421.85 58.3631L1430.98 59.3631L1431.41 55.3869L1422.29 54.3869L1421.85 58.3631ZM1392.07 66V50.625H1388.07V66H1392.07ZM1390.07 52.625H1438.69V48.625H1390.07V52.625ZM1436.69 50.625V98H1440.69V50.625H1436.69ZM1438.69 96H1423.44V100H1438.69V96ZM1425.44 97.8491L1422.56 59.8491L1418.57 60.1509L1421.45 98.1509L1425.44 97.8491ZM1418.95 61.1783L1423.33 67.1783L1426.56 64.8217L1422.18 58.8217L1418.95 61.1783ZM1424.94 64H1390.07V68H1424.94V64ZM1509.06 93.75L1508.17 95.5389L1508.17 95.5425L1509.06 93.75ZM1489.94 76.75L1488.24 77.81L1488.25 77.8187L1489.94 76.75ZM1489.94 25.625L1491.63 26.6937L1491.63 26.685L1489.94 25.625ZM1509.06 8.5L1508.17 6.70752L1508.17 6.71114L1509.06 8.5ZM1566.44 8.5L1565.54 10.2889L1565.55 10.2925L1566.44 8.5ZM1585.69 25.625L1583.99 26.685L1584 26.6937L1585.69 25.625ZM1585.69 76.75L1587.38 77.8187L1587.38 77.81L1585.69 76.75ZM1566.44 93.75L1565.55 91.9575L1565.54 91.9611L1566.44 93.75ZM1555.44 77.375L1554.57 75.5743L1554.55 75.5801L1555.44 77.375ZM1566.94 67L1565.23 65.9571L1565.22 65.9687L1565.22 65.9804L1566.94 67ZM1566.94 35.25L1565.22 36.2696L1565.22 36.2813L1565.23 36.2929L1566.94 35.25ZM1555.44 24.875L1554.55 26.6699L1554.57 26.6757L1555.44 24.875ZM1508.56 35.25L1506.85 34.2071L1506.85 34.2187L1506.84 34.2304L1508.56 35.25ZM1508.56 67L1506.84 68.0196L1506.85 68.0313L1506.85 68.0429L1508.56 67ZM1537.81 97.875C1527.15 97.875 1517.88 95.8812 1509.95 91.9575L1508.17 95.5425C1516.75 99.7854 1526.64 101.875 1537.81 101.875V97.875ZM1509.96 91.9611C1502.09 88.0299 1496 82.6031 1491.63 75.6813L1488.25 77.8187C1493.04 85.3969 1499.7 91.3035 1508.17 95.5389L1509.96 91.9611ZM1491.63 75.69C1487.27 68.7137 1485.06 60.5492 1485.06 51.125H1481.06C1481.06 61.2008 1483.43 70.1196 1488.24 77.81L1491.63 75.69ZM1485.06 51.125C1485.06 41.7003 1487.27 33.5818 1491.63 26.6937L1488.25 24.5563C1483.43 32.1682 1481.06 41.0497 1481.06 51.125H1485.06ZM1491.63 26.685C1496.01 19.6814 1502.1 14.2172 1509.96 10.2889L1508.17 6.71114C1499.69 10.9495 1493.03 16.9019 1488.24 24.565L1491.63 26.685ZM1509.95 10.2925C1517.88 6.36878 1527.15 4.37499 1537.81 4.37499V0.374994C1526.64 0.374994 1516.75 2.46455 1508.17 6.70754L1509.95 10.2925ZM1537.81 4.37499C1548.48 4.37499 1557.7 6.36899 1565.54 10.2889L1567.33 6.71114C1558.84 2.46433 1548.98 0.374994 1537.81 0.374994V4.37499ZM1565.55 10.2925C1573.49 14.2224 1579.62 19.6865 1583.99 26.685L1587.38 24.565C1582.59 16.8968 1575.88 10.9443 1567.32 6.70754L1565.55 10.2925ZM1584 26.6937C1588.35 33.5818 1590.56 41.7003 1590.56 51.125H1594.56C1594.56 41.0497 1592.19 32.1682 1587.38 24.5563L1584 26.6937ZM1590.56 51.125C1590.56 60.5492 1588.35 68.7137 1583.99 75.69L1587.38 77.81C1592.19 70.1196 1594.56 61.2008 1594.56 51.125H1590.56ZM1584 75.6813C1579.62 82.5981 1573.49 88.0247 1565.55 91.9575L1567.32 95.5425C1575.88 91.3086 1582.58 85.4019 1587.38 77.8187L1584 75.6813ZM1565.54 91.9611C1557.7 95.881 1548.48 97.875 1537.81 97.875V101.875C1548.98 101.875 1558.84 99.7857 1567.33 95.5389L1565.54 91.9611ZM1537.81 83C1544.88 83 1551.07 81.7507 1556.32 79.1699L1554.55 75.5801C1549.97 77.8326 1544.41 79 1537.81 79V83ZM1556.31 79.1757C1561.64 76.599 1565.78 72.8792 1568.66 68.0196L1565.22 65.9804C1562.76 70.1208 1559.23 73.3177 1554.57 75.5743L1556.31 79.1757ZM1568.64 68.0429C1571.61 63.1832 1573.06 57.5188 1573.06 51.125H1569.06C1569.06 56.8979 1567.76 61.8168 1565.23 65.9571L1568.64 68.0429ZM1573.06 51.125C1573.06 44.7312 1571.61 39.0668 1568.64 34.2071L1565.23 36.2929C1567.76 40.4332 1569.06 45.3521 1569.06 51.125H1573.06ZM1568.66 34.2304C1565.78 29.3708 1561.64 25.651 1556.31 23.0743L1554.57 26.6757C1559.23 28.9323 1562.76 32.1292 1565.22 36.2696L1568.66 34.2304ZM1556.32 23.0801C1551.07 20.4993 1544.88 19.25 1537.81 19.25V23.25C1544.41 23.25 1549.97 24.4174 1554.55 26.6699L1556.32 23.0801ZM1537.81 19.25C1530.82 19.25 1524.64 20.5012 1519.32 23.0743L1521.06 26.6757C1525.73 24.4154 1531.3 23.25 1537.81 23.25V19.25ZM1519.32 23.0743C1513.99 25.6487 1509.82 29.3617 1506.85 34.2071L1510.27 36.2929C1512.81 32.1383 1516.38 28.9346 1521.06 26.6757L1519.32 23.0743ZM1506.84 34.2304C1503.96 39.0863 1502.56 44.7421 1502.56 51.125H1506.56C1506.56 45.3412 1507.83 40.4137 1510.28 36.2696L1506.84 34.2304ZM1502.56 51.125C1502.56 57.5079 1503.96 63.1637 1506.84 68.0196L1510.28 65.9804C1507.83 61.8363 1506.56 56.9088 1506.56 51.125H1502.56ZM1506.85 68.0429C1509.82 72.8883 1513.99 76.6012 1519.32 79.1757L1521.06 75.5743C1516.38 73.3154 1512.81 70.1117 1510.27 65.9571L1506.85 68.0429ZM1519.32 79.1757C1524.64 81.7487 1530.82 83 1537.81 83V79C1531.3 79 1525.73 77.8346 1521.06 75.5743L1519.32 79.1757ZM1689.94 19L1688.23 20.038L1688.24 20.049L1688.25 20.06L1689.94 19ZM1689.94 51.5L1688.25 50.44L1688.24 50.4484L1689.94 51.5ZM1677.57 62.375L1678.43 64.1802L1678.44 64.1748L1678.45 64.1693L1677.57 62.375ZM1616.94 66.25H1614.94V68.25H1616.94V66.25ZM1616.94 48.75V46.75H1614.94V48.75H1616.94ZM1668.69 45.125L1667.4 43.6033L1667.38 43.6129L1667.37 43.6227L1668.69 45.125ZM1668.69 25.375L1667.37 26.8773L1667.4 26.8985L1667.42 26.9189L1668.69 25.375ZM1618.82 21.75L1617.37 20.372L1614.16 23.75H1618.82V21.75ZM1628.44 11.625H1630.44V6.61827L1626.99 10.247L1628.44 11.625ZM1628.44 98V100H1630.44V98H1628.44ZM1607.19 98H1605.19V100H1607.19V98ZM1607.19 4.24999V2.24999H1605.19V4.24999H1607.19ZM1658.32 6.24999C1665.51 6.24999 1671.61 7.50171 1676.71 9.9302L1678.43 6.31979C1672.69 3.58161 1665.96 2.24999 1658.32 2.24999V6.24999ZM1676.71 9.9302C1681.81 12.3632 1685.62 15.737 1688.23 20.038L1691.65 17.962C1688.6 12.9297 1684.16 9.05349 1678.43 6.31979L1676.71 9.9302ZM1688.25 20.06C1690.94 24.3715 1692.32 29.4117 1692.32 35.25H1696.32C1696.32 28.755 1694.78 22.9618 1691.64 17.94L1688.25 20.06ZM1692.32 35.25C1692.32 41.0883 1690.94 46.1285 1688.25 50.44L1691.64 52.56C1694.78 47.5382 1696.32 41.745 1696.32 35.25H1692.32ZM1688.24 50.4484C1685.63 54.6748 1681.81 58.0593 1676.68 60.5807L1678.45 64.1693C1684.16 61.3574 1688.59 57.4918 1691.64 52.5516L1688.24 50.4484ZM1676.71 60.5698C1671.61 62.9983 1665.51 64.25 1658.32 64.25V68.25C1665.96 68.25 1672.69 66.9184 1678.43 64.1802L1676.71 60.5698ZM1658.32 64.25H1616.94V68.25H1658.32V64.25ZM1618.94 66.25V48.75H1614.94V66.25H1618.94ZM1616.94 50.75H1657.19V46.75H1616.94V50.75ZM1657.19 50.75C1662.43 50.75 1666.79 49.4608 1670.01 46.6273L1667.37 43.6227C1665.1 45.6225 1661.79 46.75 1657.19 46.75V50.75ZM1669.99 46.6467C1673.33 43.8021 1674.94 39.9241 1674.94 35.25H1670.94C1670.94 38.9092 1669.73 41.6146 1667.4 43.6033L1669.99 46.6467ZM1674.94 35.25C1674.94 30.5078 1673.33 26.6067 1669.96 23.8311L1667.42 26.9189C1669.72 28.8099 1670.94 31.4921 1670.94 35.25H1674.94ZM1670.01 23.8727C1666.79 21.0392 1662.43 19.75 1657.19 19.75V23.75C1661.79 23.75 1665.1 24.8775 1667.37 26.8773L1670.01 23.8727ZM1657.19 19.75H1618.82V23.75H1657.19V19.75ZM1620.27 23.128L1629.89 13.003L1626.99 10.247L1617.37 20.372L1620.27 23.128ZM1626.44 11.625V98H1630.44V11.625H1626.44ZM1628.44 96H1607.19V100H1628.44V96ZM1609.19 98V4.24999H1605.19V98H1609.19ZM1607.19 6.24999H1658.32V2.24999H1607.19V6.24999ZM1735.33 13.75V11.75H1733.33V13.75H1735.33ZM1756.46 13.75H1758.46V11.75H1756.46V13.75ZM1756.46 98V100H1758.46V98H1756.46ZM1735.33 98H1733.33V100H1735.33V98ZM1697.96 4.24999V2.24999H1695.96V4.24999H1697.96ZM1793.71 4.24999H1795.71V2.24999H1793.71V4.24999ZM1793.71 23V25H1795.71V23H1793.71ZM1697.96 23H1695.96V25H1697.96V23ZM1735.33 15.75H1756.46V11.75H1735.33V15.75ZM1754.46 13.75V98H1758.46V13.75H1754.46ZM1756.46 96H1735.33V100H1756.46V96ZM1737.33 98V13.75H1733.33V98H1737.33ZM1697.96 6.24999H1793.71V2.24999H1697.96V6.24999ZM1791.71 4.24999V23H1795.71V4.24999H1791.71ZM1793.71 21H1697.96V25H1793.71V21ZM1699.96 23V4.24999H1695.96V23H1699.96ZM1805.56 4.24999V2.24999H1803.56V4.24999H1805.56ZM1826.81 4.24999H1828.81V2.24999H1826.81V4.24999ZM1826.81 98V100H1828.81V98H1826.81ZM1805.56 98H1803.56V100H1805.56V98ZM1805.56 6.24999H1826.81V2.24999H1805.56V6.24999ZM1824.81 4.24999V98H1828.81V4.24999H1824.81ZM1826.81 96H1805.56V100H1826.81V96ZM1807.56 98V4.24999H1803.56V98H1807.56ZM1977.59 4.24999H1979.59V2.24999H1977.59V4.24999ZM1977.59 98V100H1979.59V98H1977.59ZM1957.34 98H1955.34V100H1957.34V98ZM1957.34 11.375L1957.48 9.37985L1955.34 9.2306V11.375H1957.34ZM1962.71 11.75L1964.53 12.5914L1965.75 9.95695L1962.85 9.75484L1962.71 11.75ZM1922.71 98V100H1923.99L1924.53 98.8415L1922.71 98ZM1900.84 98L1899.02 98.8435L1899.56 100H1900.84V98ZM1860.84 12L1860.65 10.009L1857.83 10.2773L1859.02 12.8435L1860.84 12ZM1866.09 11.5H1868.09V9.30047L1865.9 9.50901L1866.09 11.5ZM1866.09 98V100H1868.09V98H1866.09ZM1845.96 98H1843.96V100H1845.96V98ZM1845.96 4.24999V2.24999H1843.96V4.24999H1845.96ZM1878.59 4.24999L1880.41 3.42609L1879.88 2.24999H1878.59V4.24999ZM1916.34 87.75V89.75H1919.44L1918.16 86.9261L1916.34 87.75ZM1907.21 87.75L1905.39 86.9261L1904.11 89.75H1907.21V87.75ZM1944.96 4.24999V2.24999H1943.67L1943.14 3.42609L1944.96 4.24999ZM1975.59 4.24999V98H1979.59V4.24999H1975.59ZM1977.59 96H1957.34V100H1977.59V96ZM1959.34 98V11.375H1955.34V98H1959.34ZM1957.2 13.3701L1962.57 13.7451L1962.85 9.75484L1957.48 9.37985L1957.2 13.3701ZM1960.9 10.9085L1920.9 97.1585L1924.53 98.8415L1964.53 12.5914L1960.9 10.9085ZM1922.71 96H1900.84V100H1922.71V96ZM1902.65 97.1565L1862.65 11.1565L1859.02 12.8435L1899.02 98.8435L1902.65 97.1565ZM1861.03 13.991L1866.28 13.491L1865.9 9.50901L1860.65 10.009L1861.03 13.991ZM1864.09 11.5V98H1868.09V11.5H1864.09ZM1866.09 96H1845.96V100H1866.09V96ZM1847.96 98V4.24999H1843.96V98H1847.96ZM1845.96 6.24999H1878.59V2.24999H1845.96V6.24999ZM1876.77 5.0739L1914.52 88.5739L1918.16 86.9261L1880.41 3.42609L1876.77 5.0739ZM1916.34 85.75H1907.21V89.75H1916.34V85.75ZM1909.03 88.5739L1946.78 5.0739L1943.14 3.42609L1905.39 86.9261L1909.03 88.5739ZM1944.96 6.24999H1977.59V2.24999H1944.96V6.24999ZM1996.72 4.24999V2.24999H1994.72V4.24999H1996.72ZM2017.97 4.24999H2019.97V2.24999H2017.97V4.24999ZM2017.97 98V100H2019.97V98H2017.97ZM1996.72 98H1994.72V100H1996.72V98ZM1996.72 6.24999H2017.97V2.24999H1996.72V6.24999ZM2015.97 4.24999V98H2019.97V4.24999H2015.97ZM2017.97 96H1996.72V100H2017.97V96ZM1998.72 98V4.24999H1994.72V98H1998.72ZM2032.62 98H2030.62V100H2032.62V98ZM2032.62 82.25L2031.2 80.8493L2030.62 81.4327V82.25H2032.62ZM2097.87 15.75L2098.57 13.876L2097.36 13.4223L2096.45 14.3493L2097.87 15.75ZM2112.62 21.25V23.25L2113.32 19.376L2112.62 21.25ZM2033.12 21.25H2031.12V23.25H2033.12V21.25ZM2033.12 4.24999V2.24999H2031.12V4.24999H2033.12ZM2120.87 4.24999H2122.87V2.24999H2120.87V4.24999ZM2120.87 19.875L2122.3 21.2744L2122.87 20.6913V19.875H2120.87ZM2055.5 86.625L2054.69 88.4519L2055.96 89.0177L2056.93 88.0244L2055.5 86.625ZM2042.87 81V79L2042.06 82.8269L2042.87 81ZM2121.25 81H2123.25V79H2121.25V81ZM2121.25 98V100H2123.25V98H2121.25ZM2034.62 98V82.25H2030.62V98H2034.62ZM2034.05 83.6507L2099.3 17.1507L2096.45 14.3493L2031.2 80.8493L2034.05 83.6507ZM2097.18 17.624L2111.93 23.124L2113.32 19.376L2098.57 13.876L2097.18 17.624ZM2112.62 19.25H2033.12V23.25H2112.62V19.25ZM2035.12 21.25V4.24999H2031.12V21.25H2035.12ZM2033.12 6.24999H2120.87V2.24999H2033.12V6.24999ZM2118.87 4.24999V19.875H2122.87V4.24999H2118.87ZM2119.45 18.4756L2054.07 85.2256L2056.93 88.0244L2122.3 21.2744L2119.45 18.4756ZM2056.31 84.7981L2043.69 79.1731L2042.06 82.8269L2054.69 88.4519L2056.31 84.7981ZM2042.87 83H2121.25V79H2042.87V83ZM2119.25 81V98H2123.25V81H2119.25ZM2121.25 96H2032.62V100H2121.25V96ZM2213.5 43H2215.5V41H2213.5V43ZM2213.5 59.25V61.25H2215.5V59.25H2213.5ZM2146.38 59.25H2144.38V61.25H2146.38V59.25ZM2146.38 43V41H2144.38V43H2146.38ZM2160.63 51.125L2162.6 51.4356L2162.65 51.125L2162.6 50.8143L2160.63 51.125ZM2154.38 90.875L2152.88 92.1971L2155.69 95.3925L2156.35 91.1856L2154.38 90.875ZM2145.13 80.375V78.375H2140.7L2143.63 81.6971L2145.13 80.375ZM2217.38 80.375H2219.38V78.375H2217.38V80.375ZM2217.38 98V100H2219.38V98H2217.38ZM2133 98L2131.02 97.6943L2130.67 100H2133V98ZM2140.25 51.125L2142.23 51.4307L2142.28 51.125L2142.23 50.8193L2140.25 51.125ZM2133 4.24999V2.24999H2130.67L2131.02 4.55569L2133 4.24999ZM2216.75 4.24999H2218.75V2.24999H2216.75V4.24999ZM2216.75 21.875V23.875H2218.75V21.875H2216.75ZM2145.13 21.875L2143.63 20.5529L2140.7 23.875H2145.13V21.875ZM2154.38 11.375L2156.35 11.0643L2155.69 6.85754L2152.88 10.0529L2154.38 11.375ZM2211.5 43V59.25H2215.5V43H2211.5ZM2213.5 57.25H2146.38V61.25H2213.5V57.25ZM2148.38 59.25V43H2144.38V59.25H2148.38ZM2146.38 45H2213.5V41H2146.38V45ZM2158.65 50.8143L2152.4 90.5644L2156.35 91.1856L2162.6 51.4356L2158.65 50.8143ZM2155.88 89.5529L2146.63 79.0529L2143.63 81.6971L2152.88 92.1971L2155.88 89.5529ZM2145.13 82.375H2217.38V78.375H2145.13V82.375ZM2215.38 80.375V98H2219.38V80.375H2215.38ZM2217.38 96H2133V100H2217.38V96ZM2134.98 98.3057L2142.23 51.4307L2138.27 50.8193L2131.02 97.6943L2134.98 98.3057ZM2142.23 50.8193L2134.98 3.94429L2131.02 4.55569L2138.27 51.4307L2142.23 50.8193ZM2133 6.24999H2216.75V2.24999H2133V6.24999ZM2214.75 4.24999V21.875H2218.75V4.24999H2214.75ZM2216.75 19.875H2145.13V23.875H2216.75V19.875ZM2146.63 23.1971L2155.88 12.6971L2152.88 10.0529L2143.63 20.5529L2146.63 23.1971ZM2152.4 11.6856L2158.65 51.4356L2162.6 50.8143L2156.35 11.0643L2152.4 11.6856ZM2306.66 10.125L2305.8 11.9283L2305.8 11.9317L2306.66 10.125ZM2325.91 75.75L2327.58 76.8456L2327.59 76.8365L2325.91 75.75ZM2306.66 92.125L2305.8 90.3183L2305.8 90.3217L2306.66 92.125ZM2233.54 98H2231.54V100H2233.54V98ZM2233.54 4.24999V2.24999H2231.54V4.24999H2233.54ZM2254.66 89.625L2253.27 91.0641L2256.66 94.3348V89.625H2254.66ZM2243.91 79.25V77.25H2238.96L2242.52 80.6891L2243.91 79.25ZM2296.29 75.75L2295.42 73.9489L2295.4 73.9549L2296.29 75.75ZM2307.41 65.875L2309.12 66.9138L2307.41 65.875ZM2307.41 36.375L2305.7 37.4138L2305.71 37.4214L2305.71 37.4289L2307.41 36.375ZM2296.29 26.5L2295.4 28.2951L2295.42 28.3011L2296.29 26.5ZM2243.91 23L2242.52 21.5609L2238.96 25H2243.91V23ZM2254.66 12.625H2256.66V7.91523L2253.27 11.1859L2254.66 12.625ZM2278.04 6.24999C2288.71 6.24999 2297.95 8.16498 2305.8 11.9283L2307.53 8.32167C2299.04 4.25167 2289.19 2.24999 2278.04 2.24999V6.24999ZM2305.8 11.9317C2313.75 15.7057 2319.87 20.9309 2324.24 27.5956L2327.58 25.4044C2322.78 18.0691 2316.07 12.3776 2307.52 8.31827L2305.8 11.9317ZM2324.24 27.5956C2328.58 34.2302 2330.79 42.0471 2330.79 51.125H2334.79C2334.79 41.3695 2332.41 32.7698 2327.58 25.4044L2324.24 27.5956ZM2330.79 51.125C2330.79 60.1153 2328.58 67.9377 2324.23 74.6635L2327.59 76.8365C2332.4 69.3956 2334.79 60.8014 2334.79 51.125H2330.79ZM2324.24 74.6544C2319.87 81.3191 2313.75 86.5443 2305.8 90.3183L2307.52 93.9317C2316.07 89.8724 2322.78 84.1809 2327.58 76.8456L2324.24 74.6544ZM2305.8 90.3217C2297.95 94.085 2288.71 96 2278.04 96V100C2289.19 100 2299.04 97.9983 2307.53 93.9283L2305.8 90.3217ZM2278.04 96H2233.54V100H2278.04V96ZM2235.54 98V4.24999H2231.54V98H2235.54ZM2233.54 6.24999H2278.04V2.24999H2233.54V6.24999ZM2256.05 88.1859L2245.3 77.8109L2242.52 80.6891L2253.27 91.0641L2256.05 88.1859ZM2243.91 81.25H2279.66V77.25H2243.91V81.25ZM2279.66 81.25C2286.24 81.25 2292.09 80.0372 2297.17 77.5451L2295.4 73.9549C2290.98 76.1294 2285.75 77.25 2279.66 77.25V81.25ZM2297.16 77.5511C2302.31 75.0639 2306.32 71.5198 2309.12 66.9138L2305.7 64.8362C2303.33 68.7302 2299.93 71.7695 2295.42 73.9489L2297.16 77.5511ZM2309.12 66.9138C2311.92 62.3136 2313.29 57.0286 2313.29 51.125H2309.29C2309.29 56.388 2308.07 60.9364 2305.7 64.8362L2309.12 66.9138ZM2313.29 51.125C2313.29 45.1451 2311.92 39.851 2309.11 35.3211L2305.71 37.4289C2308.07 41.2323 2309.29 45.7716 2309.29 51.125H2313.29ZM2309.12 35.3362C2306.32 30.7302 2302.31 27.1861 2297.16 24.6989L2295.42 28.3011C2299.93 30.4805 2303.33 33.5198 2305.7 37.4138L2309.12 35.3362ZM2297.17 24.7049C2292.09 22.2128 2286.24 21 2279.66 21V25C2285.75 25 2290.98 26.1206 2295.4 28.2951L2297.17 24.7049ZM2279.66 21H2243.91V25H2279.66V21ZM2245.3 24.4391L2256.05 14.0641L2253.27 11.1859L2242.52 21.5609L2245.3 24.4391ZM2252.66 12.625V89.625H2256.66V12.625H2252.66Z" fill="white" fill-opacity="0.3" mask="url(#path-1-outside-1_432_138)"/>
</svg>
