<svg width="1856" height="102" viewBox="0 0 1856 102" fill="none" xmlns="http://www.w3.org/2000/svg">
<mask id="path-1-outside-1_432_156" maskUnits="userSpaceOnUse" x="0" y="0" width="1856" height="102" fill="black">
<rect fill="white" width="1856" height="102"/>
<path d="M108.583 59.875C107.666 67.7917 104.875 74.7917 100.208 80.875C95.6247 86.875 89.5413 91.5417 81.958 94.875C74.458 98.2083 65.8747 99.875 56.208 99.875C45.5413 99.875 36.1663 97.8333 28.083 93.75C20.083 89.6667 13.833 84 9.33301 76.75C4.83301 69.4167 2.58301 60.875 2.58301 51.125C2.58301 41.375 4.83301 32.875 9.33301 25.625C13.833 18.2917 20.083 12.5833 28.083 8.5C36.1663 4.41666 45.5413 2.37499 56.208 2.37499C65.8747 2.37499 74.458 4.04166 81.958 7.375C89.5413 10.7083 95.6247 15.375 100.208 21.375C104.875 27.375 107.666 34.375 108.583 42.375H87.208C86.3747 37.9583 84.583 34.1667 81.833 31C79.083 27.75 75.5413 25.25 71.208 23.5C66.8747 21.75 61.833 20.875 56.083 20.875C49.4997 20.875 43.7913 22.125 38.958 24.625C34.208 27.0417 30.5413 30.5417 27.958 35.125C25.3747 39.625 24.083 44.9583 24.083 51.125C24.083 57.2917 25.3747 62.6667 27.958 67.25C30.5413 71.75 34.208 75.25 38.958 77.75C43.7913 80.1667 49.4997 81.375 56.083 81.375C61.833 81.375 66.8747 80.5417 71.208 78.875C75.5413 77.125 79.083 74.6667 81.833 71.5C84.583 68.25 86.3747 64.375 87.208 59.875H108.583ZM172.564 99.875C161.648 99.875 152.064 97.8333 143.814 93.75C135.648 89.6667 129.273 84 124.689 76.75C120.106 69.4167 117.814 60.875 117.814 51.125C117.814 41.375 120.106 32.875 124.689 25.625C129.273 18.2917 135.648 12.5833 143.814 8.5C152.064 4.41666 161.648 2.37499 172.564 2.37499C183.481 2.37499 193.023 4.41666 201.189 8.5C209.439 12.5833 215.856 18.2917 220.439 25.625C225.023 32.875 227.314 41.375 227.314 51.125C227.314 60.875 225.023 69.4167 220.439 76.75C215.856 84 209.439 89.6667 201.189 93.75C193.023 97.8333 183.481 99.875 172.564 99.875ZM172.564 81C179.398 81 185.273 79.7917 190.189 77.375C195.189 74.9583 199.023 71.5 201.689 67C204.439 62.5 205.814 57.2083 205.814 51.125C205.814 45.0417 204.439 39.75 201.689 35.25C199.023 30.75 195.189 27.2917 190.189 24.875C185.273 22.4583 179.398 21.25 172.564 21.25C165.814 21.25 159.939 22.4583 154.939 24.875C149.939 27.2917 146.064 30.75 143.314 35.25C140.648 39.75 139.314 45.0417 139.314 51.125C139.314 57.2083 140.648 62.5 143.314 67C146.064 71.5 149.939 74.9583 154.939 77.375C159.939 79.7917 165.814 81 172.564 81ZM263.196 4.24999V88.625L253.571 79.25H323.946V98H241.946V4.24999H263.196ZM357.068 4.24999V88.625L347.443 79.25H417.818V98H335.818V4.24999H357.068ZM445.065 78.25V61H510.065V78.25H445.065ZM491.69 4.24999L535.565 98H512.94L474.565 12.875H481.565L443.19 98H420.565L464.44 4.24999H491.69ZM605.782 51.75L607.782 47.5C615.032 47.6667 621.032 48.8333 625.782 51C630.532 53.0833 634.032 55.9583 636.282 59.625C638.532 63.2083 639.657 67.3333 639.657 72C639.657 77 638.449 81.4583 636.032 85.375C633.699 89.2917 630.241 92.375 625.657 94.625C621.074 96.875 615.324 98 608.407 98H542.657L549.907 49.875L542.657 4.24999H606.032C614.699 4.24999 621.407 6.29166 626.157 10.375C630.991 14.375 633.407 19.9167 633.407 27C633.407 30.8333 632.491 34.5417 630.657 38.125C628.907 41.7083 625.991 44.75 621.907 47.25C617.907 49.6667 612.532 51.1667 605.782 51.75ZM563.657 92.625L555.532 82.375H604.032C608.532 82.375 611.991 81.3333 614.407 79.25C616.907 77.0833 618.157 74.0833 618.157 70.25C618.157 66.3333 616.741 63.25 613.907 61C611.074 58.6667 606.907 57.5 601.407 57.5H561.907V42.25H598.907C602.657 42.25 605.741 41.2083 608.157 39.125C610.657 36.9583 611.907 33.9583 611.907 30.125C611.907 27.2083 610.866 24.7917 608.782 22.875C606.699 20.875 603.699 19.875 599.782 19.875H555.532L563.657 9.625L570.282 49.875L563.657 92.625ZM703.692 99.875C692.776 99.875 683.192 97.8333 674.942 93.75C666.776 89.6667 660.401 84 655.817 76.75C651.234 69.4167 648.942 60.875 648.942 51.125C648.942 41.375 651.234 32.875 655.817 25.625C660.401 18.2917 666.776 12.5833 674.942 8.5C683.192 4.41666 692.776 2.37499 703.692 2.37499C714.609 2.37499 724.151 4.41666 732.317 8.5C740.567 12.5833 746.984 18.2917 751.567 25.625C756.151 32.875 758.442 41.375 758.442 51.125C758.442 60.875 756.151 69.4167 751.567 76.75C746.984 84 740.567 89.6667 732.317 93.75C724.151 97.8333 714.609 99.875 703.692 99.875ZM703.692 81C710.526 81 716.401 79.7917 721.317 77.375C726.317 74.9583 730.151 71.5 732.817 67C735.567 62.5 736.942 57.2083 736.942 51.125C736.942 45.0417 735.567 39.75 732.817 35.25C730.151 30.75 726.317 27.2917 721.317 24.875C716.401 22.4583 710.526 21.25 703.692 21.25C696.942 21.25 691.067 22.4583 686.067 24.875C681.067 27.2917 677.192 30.75 674.442 35.25C671.776 39.75 670.442 45.0417 670.442 51.125C670.442 57.2083 671.776 62.5 674.442 67C677.192 71.5 681.067 74.9583 686.067 77.375C691.067 79.7917 696.942 81 703.692 81ZM787.824 45.875H823.949C828.699 45.875 832.449 44.7917 835.199 42.625C838.033 40.375 839.449 37.2917 839.449 33.375C839.449 29.4583 838.033 26.4167 835.199 24.25C832.449 22.0833 828.699 21 823.949 21H784.699L794.324 10.125V98H773.074V4.24999H826.449C833.283 4.24999 839.283 5.49999 844.449 8C849.616 10.4167 853.658 13.7917 856.574 18.125C859.491 22.4583 860.949 27.5417 860.949 33.375C860.949 39.125 859.491 44.1667 856.574 48.5C853.658 52.8333 849.616 56.25 844.449 58.75C839.283 61.1667 833.283 62.375 826.449 62.375H787.824V45.875ZM804.074 54.125H828.324L863.699 98H838.824L804.074 54.125ZM890.256 78.25V61H955.256V78.25H890.256ZM936.881 4.24999L980.756 98H958.131L919.756 12.875H926.756L888.381 98H865.756L909.631 4.24999H936.881ZM1005.1 13.75H1026.22V98H1005.1V13.75ZM967.723 4.24999H1063.47V23H967.723V4.24999ZM1152.82 43V59.25H1085.7V43H1152.82ZM1099.95 51.125L1093.7 90.875L1084.45 80.375H1156.7V98H1072.32L1079.57 51.125L1072.32 4.24999H1156.07V21.875H1084.45L1093.7 11.375L1099.95 51.125ZM1316.3 89.375H1309.05L1335.17 4.24999H1357.42L1327.3 98H1300.17L1270.67 15H1279.92L1250.42 98H1223.3L1193.17 4.24999H1215.67L1241.55 89.375L1234.55 89.25L1264.05 4.24999H1286.67L1316.3 89.375ZM1368.53 4.24999H1389.78V98H1368.53V4.24999ZM1438.81 13.75H1459.94V98H1438.81V13.75ZM1401.44 4.24999H1497.19V23H1401.44V4.24999ZM1509.04 4.24999H1530.29V98H1509.04V4.24999ZM1584.04 4.24999H1605.29V98H1584.04V4.24999ZM1520.66 41.25H1593.41V59.875H1520.66V41.25ZM1676.5 56.875C1676.5 61.875 1677.46 66.1667 1679.37 69.75C1681.29 73.3333 1684.08 76.125 1687.75 78.125C1691.5 80.0417 1696 81 1701.25 81C1706.58 81 1711.08 80.0417 1714.75 78.125C1718.41 76.125 1721.21 73.3333 1723.12 69.75C1725.04 66.1667 1726 61.875 1726 56.875V4.24999H1747.25V57.875C1747.25 66.2917 1745.33 73.6667 1741.5 80C1737.66 86.25 1732.29 91.125 1725.37 94.625C1718.46 98.125 1710.41 99.875 1701.25 99.875C1692.08 99.875 1684.04 98.125 1677.12 94.625C1670.29 91.125 1664.91 86.25 1661 80C1657.16 73.6667 1655.25 66.2917 1655.25 57.875V4.24999H1676.5V56.875ZM1760.26 67.375H1781.76C1782.26 70.5417 1783.64 73.3333 1785.89 75.75C1788.22 78.0833 1791.3 79.9167 1795.14 81.25C1799.05 82.5 1803.55 83.125 1808.64 83.125C1816.05 83.125 1821.89 82.0833 1826.14 80C1830.47 77.8333 1832.64 74.8333 1832.64 71C1832.64 68 1831.39 65.7083 1828.89 64.125C1826.47 62.4583 1821.93 61.25 1815.26 60.5L1796.39 58.375C1784.22 57.0417 1775.39 54.2083 1769.89 49.875C1764.47 45.4583 1761.76 39.3333 1761.76 31.5C1761.76 25.3333 1763.55 20.0833 1767.14 15.75C1770.8 11.4167 1775.93 8.12499 1782.51 5.87499C1789.1 3.54166 1796.85 2.37499 1805.76 2.37499C1814.43 2.37499 1822.14 3.66666 1828.89 6.25C1835.64 8.74999 1841.01 12.2917 1845.01 16.875C1849.01 21.375 1851.18 26.6667 1851.51 32.75H1830.01C1829.6 30 1828.35 27.625 1826.26 25.625C1824.26 23.5417 1821.47 21.9583 1817.89 20.875C1814.3 19.7083 1810.1 19.125 1805.26 19.125C1798.51 19.125 1793.14 20.125 1789.14 22.125C1785.14 24.125 1783.14 26.9583 1783.14 30.625C1783.14 33.4583 1784.3 35.6667 1786.64 37.25C1789.05 38.75 1793.26 39.875 1799.26 40.625L1818.89 43C1827.55 43.9167 1834.43 45.4167 1839.51 47.5C1844.68 49.5 1848.35 52.2083 1850.51 55.625C1852.76 59.0417 1853.89 63.375 1853.89 68.625C1853.89 74.875 1851.97 80.375 1848.14 85.125C1844.39 89.7917 1839.1 93.4167 1832.26 96C1825.43 98.5833 1817.43 99.875 1808.26 99.875C1798.93 99.875 1790.72 98.5417 1783.64 95.875C1776.55 93.125 1770.97 89.3333 1766.89 84.5C1762.8 79.5833 1760.6 73.875 1760.26 67.375Z"/>
</mask>
<path d="M108.583 59.875L110.57 60.105L110.828 57.875H108.583V59.875ZM100.208 80.875L98.6211 79.6577L98.6187 79.6609L100.208 80.875ZM81.958 94.875L81.1532 93.0441L81.1457 93.0474L81.958 94.875ZM28.083 93.75L27.1738 95.5314L27.1812 95.5352L28.083 93.75ZM9.33301 76.75L7.62834 77.796L7.63373 77.8047L9.33301 76.75ZM9.33301 25.625L11.0323 26.6797L11.0377 26.671L9.33301 25.625ZM28.083 8.5L27.1812 6.71482L27.1738 6.71863L28.083 8.5ZM81.958 7.375L81.1457 9.20264L81.1532 9.20592L81.958 7.375ZM100.208 21.375L98.6187 22.5891L98.624 22.596L98.6293 22.6029L100.208 21.375ZM108.583 42.375V44.375H110.825L110.57 42.1473L108.583 42.375ZM87.208 42.375L85.2427 42.7458L85.5501 44.375H87.208V42.375ZM81.833 31L80.3062 32.2919L80.3145 32.3017L80.3229 32.3114L81.833 31ZM71.208 23.5L70.4591 25.3545V25.3545L71.208 23.5ZM38.958 24.625L39.8649 26.4076L39.8769 26.4014L38.958 24.625ZM27.958 35.125L29.6925 36.1207L29.6964 36.1139L29.7003 36.107L27.958 35.125ZM27.958 67.25L26.2157 68.232L26.2196 68.2389L26.2235 68.2457L27.958 67.25ZM38.958 77.75L38.0265 79.5198L38.045 79.5295L38.0636 79.5389L38.958 77.75ZM71.208 78.875L71.926 80.7417L71.9415 80.7357L71.9569 80.7295L71.208 78.875ZM81.833 71.5L83.3431 72.8114L83.3515 72.8017L83.3598 72.7919L81.833 71.5ZM87.208 59.875V57.875H85.5444L85.2414 59.5108L87.208 59.875ZM106.596 59.645C105.719 67.2173 103.059 73.8729 98.6211 79.6577L101.795 82.0923C106.691 75.7105 109.613 68.3661 110.57 60.105L106.596 59.645ZM98.6187 79.6609C94.26 85.3668 88.4579 89.8332 81.1532 93.0441L82.7628 96.7059C90.6248 93.2501 96.9893 88.3832 101.797 82.0891L98.6187 79.6609ZM81.1457 93.0474C73.9428 96.2487 65.644 97.875 56.208 97.875V101.875C66.1054 101.875 74.9732 100.168 82.7703 96.7026L81.1457 93.0474ZM56.208 97.875C45.7991 97.875 36.7429 95.8839 28.9848 91.9648L27.1812 95.5352C35.5898 99.7828 45.2836 101.875 56.208 101.875V97.875ZM28.9923 91.9686C21.2991 88.0419 15.3298 82.619 11.0323 75.6953L7.63373 77.8047C12.3362 85.381 18.867 91.2914 27.1738 95.5314L28.9923 91.9686ZM11.0377 75.704C6.75553 68.7257 4.58301 60.5561 4.58301 51.125H0.583008C0.583008 61.1939 2.91049 70.1076 7.62836 77.796L11.0377 75.704ZM4.58301 51.125C4.58301 41.6934 6.75568 33.5698 11.0323 26.6797L7.63373 24.5703C2.91034 32.1802 0.583008 41.0566 0.583008 51.125H4.58301ZM11.0377 26.671C15.3365 19.6654 21.3049 14.2051 28.9922 10.2814L27.1738 6.71863C18.8611 10.9615 12.3295 16.9179 7.62836 24.579L11.0377 26.671ZM28.9848 10.2852C36.7429 6.36613 45.7991 4.37499 56.208 4.37499V0.374994C45.2836 0.374994 35.5898 2.46719 27.1812 6.71484L28.9848 10.2852ZM56.208 4.37499C65.644 4.37499 73.9428 6.00133 81.1457 9.20262L82.7703 5.54737C74.9732 2.08199 66.1054 0.374994 56.208 0.374994V4.37499ZM81.1532 9.20592C88.4579 12.4168 94.26 16.8832 98.6187 22.5891L101.797 20.1609C96.9893 13.8668 90.6248 8.99989 82.7628 5.54407L81.1532 9.20592ZM98.6293 22.6029C103.057 28.2958 105.719 34.9447 106.596 42.6027L110.57 42.1473C109.614 33.8053 106.692 26.4542 101.787 20.1471L98.6293 22.6029ZM108.583 40.375H87.208V44.375H108.583V40.375ZM89.1733 42.0042C88.2792 37.265 86.3422 33.1421 83.3431 29.6886L80.3229 32.3114C82.8239 35.1912 84.4702 38.6516 85.2427 42.7458L89.1733 42.0042ZM83.3598 29.7081C80.3801 26.1866 76.5614 23.505 71.9569 21.6455L70.4591 25.3545C74.5213 26.995 77.786 29.3134 80.3062 32.2919L83.3598 29.7081ZM71.9569 21.6455C67.3377 19.78 62.0324 18.875 56.083 18.875V22.875C61.6337 22.875 66.4117 23.7199 70.4591 25.3545L71.9569 21.6455ZM56.083 18.875C49.2463 18.875 43.2101 20.1739 38.0392 22.8486L39.8769 26.4014C44.3726 24.0761 49.753 22.875 56.083 22.875V18.875ZM38.0511 22.8424C32.9547 25.4354 28.9952 29.2116 26.2157 34.143L29.7003 36.107C32.0875 31.8717 35.4613 28.648 39.8649 26.4076L38.0511 22.8424ZM26.2235 34.1293C23.436 38.9849 22.083 44.675 22.083 51.125H26.083C26.083 45.2417 27.3133 40.2651 29.6925 36.1207L26.2235 34.1293ZM22.083 51.125C22.083 57.5761 23.4364 63.301 26.2157 68.232L29.7003 66.268C27.3129 62.0323 26.083 57.0072 26.083 51.125H22.083ZM26.2235 68.2457C29.0024 73.0864 32.953 76.8496 38.0265 79.5198L39.8895 75.9802C35.463 73.6504 32.0803 70.4136 29.6925 66.2543L26.2235 68.2457ZM38.0636 79.5389C43.2287 82.1214 49.2559 83.375 56.083 83.375V79.375C49.7434 79.375 44.3539 78.2119 39.8524 75.9611L38.0636 79.5389ZM56.083 83.375C62.022 83.375 67.3161 82.5147 71.926 80.7417L70.4901 77.0083C66.4332 78.5686 61.644 79.375 56.083 79.375V83.375ZM71.9569 80.7295C76.5494 78.8748 80.3631 76.2429 83.3431 72.8114L80.3229 70.1886C77.8029 73.0905 74.5333 75.3752 70.4591 77.0205L71.9569 80.7295ZM83.3598 72.7919C86.3514 69.2563 88.2828 65.0549 89.1746 60.2392L85.2414 59.5108C84.4666 63.6951 82.8146 67.2437 80.3062 70.2081L83.3598 72.7919ZM87.208 61.875H108.583V57.875H87.208V61.875ZM143.814 93.75L142.92 95.5389L142.927 95.5425L143.814 93.75ZM124.689 76.75L122.993 77.81L122.999 77.8187L124.689 76.75ZM124.689 25.625L126.38 26.6937L126.385 26.685L124.689 25.625ZM143.814 8.5L142.927 6.70752L142.92 6.71114L143.814 8.5ZM201.189 8.5L200.295 10.2889L200.302 10.2925L201.189 8.5ZM220.439 25.625L218.743 26.685L218.749 26.6937L220.439 25.625ZM220.439 76.75L222.13 77.8187L222.135 77.81L220.439 76.75ZM201.189 93.75L200.302 91.9575L200.295 91.9611L201.189 93.75ZM190.189 77.375L189.319 75.5743L189.307 75.5801L190.189 77.375ZM201.689 67L199.983 65.9571L199.976 65.9687L199.969 65.9804L201.689 67ZM201.689 35.25L199.969 36.2696L199.976 36.2813L199.983 36.2929L201.689 35.25ZM190.189 24.875L189.307 26.6699L189.319 26.6757L190.189 24.875ZM143.314 35.25L141.608 34.2071L141.601 34.2187L141.594 34.2304L143.314 35.25ZM143.314 67L141.594 68.0196L141.601 68.0313L141.608 68.0429L143.314 67ZM172.564 97.875C161.899 97.875 152.629 95.8812 144.702 91.9575L142.927 95.5425C151.5 99.7854 161.397 101.875 172.564 101.875V97.875ZM144.709 91.9611C136.846 88.0299 130.756 82.6031 126.38 75.6813L122.999 77.8187C127.79 85.3969 134.449 91.3035 142.92 95.5389L144.709 91.9611ZM126.385 75.69C122.025 68.7137 119.814 60.5492 119.814 51.125H115.814C115.814 61.2008 118.187 70.1196 122.993 77.81L126.385 75.69ZM119.814 51.125C119.814 41.7003 122.025 33.5818 126.38 26.6937L122.999 24.5563C118.187 32.1682 115.814 41.0497 115.814 51.125H119.814ZM126.385 26.685C130.763 19.6814 136.852 14.2172 144.709 10.2889L142.92 6.71114C134.443 10.9495 127.783 16.9019 122.993 24.565L126.385 26.685ZM144.702 10.2925C152.629 6.36878 161.899 4.37499 172.564 4.37499V0.374994C161.397 0.374994 151.5 2.46455 142.927 6.70754L144.702 10.2925ZM172.564 4.37499C183.231 4.37499 192.455 6.36899 200.295 10.2889L202.084 6.71114C193.59 2.46433 183.731 0.374994 172.564 0.374994V4.37499ZM200.302 10.2925C208.242 14.2224 214.369 19.6865 218.743 26.685L222.135 24.565C217.343 16.8968 210.637 10.9443 202.077 6.70754L200.302 10.2925ZM218.749 26.6937C223.104 33.5818 225.314 41.7003 225.314 51.125H229.314C229.314 41.0497 226.942 32.1682 222.13 24.5563L218.749 26.6937ZM225.314 51.125C225.314 60.5492 223.104 68.7137 218.743 75.69L222.135 77.81C226.942 70.1196 229.314 61.2008 229.314 51.125H225.314ZM218.749 75.6813C214.376 82.5981 208.248 88.0247 200.302 91.9575L202.077 95.5425C210.631 91.3086 217.336 85.4019 222.13 77.8187L218.749 75.6813ZM200.295 91.9611C192.455 95.881 183.231 97.875 172.564 97.875V101.875C183.731 101.875 193.59 99.7857 202.084 95.5389L200.295 91.9611ZM172.564 83C179.63 83 185.821 81.7507 191.072 79.1699L189.307 75.5801C184.724 77.8326 179.166 79 172.564 79V83ZM191.06 79.1757C196.391 76.599 200.53 72.8792 203.41 68.0196L199.969 65.9804C197.515 70.1208 193.988 73.3177 189.319 75.5743L191.06 79.1757ZM203.396 68.0429C206.366 63.1832 207.814 57.5188 207.814 51.125H203.814C203.814 56.8979 202.513 61.8168 199.983 65.9571L203.396 68.0429ZM207.814 51.125C207.814 44.7312 206.366 39.0668 203.396 34.2071L199.983 36.2929C202.513 40.4332 203.814 45.3521 203.814 51.125H207.814ZM203.41 34.2304C200.53 29.3708 196.391 25.651 191.06 23.0743L189.319 26.6757C193.988 28.9323 197.515 32.1292 199.969 36.2696L203.41 34.2304ZM191.072 23.0801C185.821 20.4993 179.63 19.25 172.564 19.25V23.25C179.166 23.25 184.724 24.4174 189.307 26.6699L191.072 23.0801ZM172.564 19.25C165.577 19.25 159.393 20.5012 154.069 23.0743L155.81 26.6757C160.486 24.4154 166.052 23.25 172.564 23.25V19.25ZM154.069 23.0743C148.743 25.6487 144.569 29.3617 141.608 34.2071L145.021 36.2929C147.56 32.1383 151.136 28.9346 155.81 26.6757L154.069 23.0743ZM141.594 34.2304C138.716 39.0863 137.314 44.7421 137.314 51.125H141.314C141.314 45.3412 142.579 40.4137 145.035 36.2696L141.594 34.2304ZM137.314 51.125C137.314 57.5079 138.716 63.1637 141.594 68.0196L145.035 65.9804C142.579 61.8363 141.314 56.9088 141.314 51.125H137.314ZM141.608 68.0429C144.569 72.8883 148.743 76.6012 154.069 79.1757L155.81 75.5743C151.136 73.3154 147.56 70.1117 145.021 65.9571L141.608 68.0429ZM154.069 79.1757C159.393 81.7487 165.577 83 172.564 83V79C166.052 79 160.486 77.8346 155.81 75.5743L154.069 79.1757ZM263.196 4.24999H265.196V2.24999H263.196V4.24999ZM263.196 88.625L261.801 90.0577L265.196 93.365V88.625H263.196ZM253.571 79.25V77.25H248.652L252.176 80.6827L253.571 79.25ZM323.946 79.25H325.946V77.25H323.946V79.25ZM323.946 98V100H325.946V98H323.946ZM241.946 98H239.946V100H241.946V98ZM241.946 4.24999V2.24999H239.946V4.24999H241.946ZM261.196 4.24999V88.625H265.196V4.24999H261.196ZM264.592 87.1923L254.967 77.8173L252.176 80.6827L261.801 90.0577L264.592 87.1923ZM253.571 81.25H323.946V77.25H253.571V81.25ZM321.946 79.25V98H325.946V79.25H321.946ZM323.946 96H241.946V100H323.946V96ZM243.946 98V4.24999H239.946V98H243.946ZM241.946 6.24999H263.196V2.24999H241.946V6.24999ZM357.068 4.24999H359.068V2.24999H357.068V4.24999ZM357.068 88.625L355.673 90.0577L359.068 93.365V88.625H357.068ZM347.443 79.25V77.25H342.524L346.048 80.6827L347.443 79.25ZM417.818 79.25H419.818V77.25H417.818V79.25ZM417.818 98V100H419.818V98H417.818ZM335.818 98H333.818V100H335.818V98ZM335.818 4.24999V2.24999H333.818V4.24999H335.818ZM355.068 4.24999V88.625H359.068V4.24999H355.068ZM358.464 87.1923L348.839 77.8173L346.048 80.6827L355.673 90.0577L358.464 87.1923ZM347.443 81.25H417.818V77.25H347.443V81.25ZM415.818 79.25V98H419.818V79.25H415.818ZM417.818 96H335.818V100H417.818V96ZM337.818 98V4.24999H333.818V98H337.818ZM335.818 6.24999H357.068V2.24999H335.818V6.24999ZM445.065 78.25H443.065V80.25H445.065V78.25ZM445.065 61V59H443.065V61H445.065ZM510.065 61H512.065V59H510.065V61ZM510.065 78.25V80.25H512.065V78.25H510.065ZM491.69 4.24999L493.502 3.40224L492.963 2.24999H491.69V4.24999ZM535.565 98V100H538.71L537.377 97.1522L535.565 98ZM512.94 98L511.117 98.822L511.648 100H512.94V98ZM474.565 12.875V10.875H471.47L472.742 13.6969L474.565 12.875ZM481.565 12.875L483.389 13.6969L484.661 10.875H481.565V12.875ZM443.19 98V100H444.483L445.014 98.822L443.19 98ZM420.565 98L418.754 97.1522L417.421 100H420.565V98ZM464.44 4.24999V2.24999H463.168L462.629 3.40224L464.44 4.24999ZM447.065 78.25V61H443.065V78.25H447.065ZM445.065 63H510.065V59H445.065V63ZM508.065 61V78.25H512.065V61H508.065ZM510.065 76.25H445.065V80.25H510.065V76.25ZM489.879 5.09775L533.754 98.8478L537.377 97.1522L493.502 3.40224L489.879 5.09775ZM535.565 96H512.94V100H535.565V96ZM514.764 97.178L476.389 12.053L472.742 13.6969L511.117 98.822L514.764 97.178ZM474.565 14.875H481.565V10.875H474.565V14.875ZM479.742 12.053L441.367 97.178L445.014 98.822L483.389 13.6969L479.742 12.053ZM443.19 96H420.565V100H443.19V96ZM422.377 98.8478L466.252 5.09775L462.629 3.40224L418.754 97.1522L422.377 98.8478ZM464.44 6.24999H491.69V2.24999H464.44V6.24999ZM605.782 51.75L603.973 50.8984L602.493 54.0417L605.954 53.7426L605.782 51.75ZM607.782 47.5L607.828 45.5005L606.527 45.4706L605.973 46.6484L607.782 47.5ZM625.782 51L624.952 52.8196L624.966 52.8257L624.979 52.8316L625.782 51ZM636.282 59.625L634.578 60.671L634.583 60.6798L634.588 60.6885L636.282 59.625ZM636.032 85.375L634.33 84.3248L634.322 84.338L634.314 84.3514L636.032 85.375ZM625.657 94.625L624.776 92.8297L625.657 94.625ZM542.657 98L540.68 97.7021L540.333 100H542.657V98ZM549.907 49.875L551.885 50.1729L551.931 49.8668L551.882 49.5611L549.907 49.875ZM542.657 4.24999V2.24999H540.314L540.682 4.56386L542.657 4.24999ZM626.157 10.375L624.853 11.8916L624.868 11.9038L624.882 11.9158L626.157 10.375ZM630.657 38.125L628.877 37.214L628.868 37.2306L628.86 37.2473L630.657 38.125ZM621.907 47.25L622.941 48.9619L622.952 48.9557L621.907 47.25ZM563.657 92.625L562.09 93.8674L564.933 97.4538L565.634 92.9313L563.657 92.625ZM555.532 82.375V80.375H551.395L553.965 83.6174L555.532 82.375ZM614.407 79.25L615.713 80.7648L615.717 80.7614L614.407 79.25ZM613.907 61L612.636 62.5439L612.65 62.5552L612.663 62.5662L613.907 61ZM561.907 57.5H559.907V59.5H561.907V57.5ZM561.907 42.25V40.25H559.907V42.25H561.907ZM608.157 39.125L609.463 40.6398L609.467 40.6364L608.157 39.125ZM608.782 22.875L607.397 24.3178L607.412 24.3325L607.428 24.3469L608.782 22.875ZM555.532 19.875L553.965 18.6326L551.395 21.875H555.532V19.875ZM563.657 9.625L565.631 9.30018L564.897 4.8416L562.09 8.38261L563.657 9.625ZM570.282 49.875L572.259 50.1813L572.308 49.8655L572.256 49.5502L570.282 49.875ZM607.592 52.6016L609.592 48.3516L605.973 46.6484L603.973 50.8984L607.592 52.6016ZM607.736 49.4995C614.814 49.6622 620.525 50.8001 624.952 52.8196L626.612 49.1804C621.54 46.8666 615.251 45.6712 607.828 45.5005L607.736 49.4995ZM624.979 52.8316C629.434 54.7854 632.582 57.4183 634.578 60.671L637.987 58.579C635.483 54.4984 631.631 51.3813 626.586 49.1684L624.979 52.8316ZM634.588 60.6885C636.618 63.9209 637.657 67.6695 637.657 72H641.657C641.657 66.9971 640.446 62.4958 637.976 58.5615L634.588 60.6885ZM637.657 72C637.657 76.6623 636.535 80.7509 634.33 84.3248L637.734 86.4252C640.362 82.1657 641.657 77.3377 641.657 72H637.657ZM634.314 84.3514C632.202 87.8962 629.055 90.7292 624.776 92.8297L626.539 96.4203C631.427 94.0208 635.196 90.6871 637.75 86.3986L634.314 84.3514ZM624.776 92.8297C620.546 94.906 615.121 96 608.407 96V100C615.527 100 621.602 98.844 626.539 96.4203L624.776 92.8297ZM608.407 96H542.657V100H608.407V96ZM544.635 98.2979L551.885 50.1729L547.93 49.5771L540.68 97.7021L544.635 98.2979ZM551.882 49.5611L544.632 3.93612L540.682 4.56386L547.932 50.1889L551.882 49.5611ZM542.657 6.24999H606.032V2.24999H542.657V6.24999ZM606.032 6.24999C614.404 6.24999 620.584 8.22171 624.853 11.8916L627.461 8.85836C622.23 4.36161 614.994 2.24999 606.032 2.24999V6.24999ZM624.882 11.9158C629.194 15.4839 631.407 20.4261 631.407 27H635.407C635.407 19.4073 632.788 13.2661 627.432 8.83421L624.882 11.9158ZM631.407 27C631.407 30.5007 630.573 33.8982 628.877 37.214L632.438 39.0359C634.408 35.1852 635.407 31.166 635.407 27H631.407ZM628.86 37.2473C627.308 40.4254 624.687 43.2028 620.863 45.5443L622.952 48.9557C627.294 46.2972 630.506 42.9913 632.454 39.0027L628.86 37.2473ZM620.873 45.5382C617.226 47.7416 612.182 49.1895 605.61 49.7574L605.954 53.7426C612.882 53.1439 618.589 51.5917 622.941 48.9618L620.873 45.5382ZM565.225 91.3826L557.1 81.1326L553.965 83.6174L562.09 93.8674L565.225 91.3826ZM555.532 84.375H604.032V80.375H555.532V84.375ZM604.032 84.375C608.817 84.375 612.809 83.2684 615.713 80.7648L613.101 77.7352C611.172 79.3982 608.248 80.375 604.032 80.375V84.375ZM615.717 80.7614C618.727 78.1528 620.157 74.5614 620.157 70.25H616.157C616.157 73.6053 615.087 76.0139 613.097 77.7386L615.717 80.7614ZM620.157 70.25C620.157 65.781 618.506 62.0977 615.151 59.4338L612.663 62.5662C614.976 64.4023 616.157 66.8856 616.157 70.25H620.157ZM615.179 59.4561C611.847 56.7121 607.149 55.5 601.407 55.5V59.5C606.666 59.5 610.301 60.6212 612.636 62.5439L615.179 59.4561ZM601.407 55.5H561.907V59.5H601.407V55.5ZM563.907 57.5V42.25H559.907V57.5H563.907ZM561.907 44.25H598.907V40.25H561.907V44.25ZM598.907 44.25C603.048 44.25 606.621 43.0895 609.463 40.6398L606.851 37.6102C604.86 39.3272 602.266 40.25 598.907 40.25V44.25ZM609.467 40.6364C612.477 38.0278 613.907 34.4364 613.907 30.125H609.907C609.907 33.4803 608.837 35.8889 606.847 37.6136L609.467 40.6364ZM613.907 30.125C613.907 26.6682 612.645 23.7113 610.136 21.4031L607.428 24.3469C609.086 25.872 609.907 27.7485 609.907 30.125H613.907ZM610.167 21.4322C607.595 18.9629 604.028 17.875 599.782 17.875V21.875C603.37 21.875 605.803 22.7871 607.397 24.3178L610.167 21.4322ZM599.782 17.875H555.532V21.875H599.782V17.875ZM557.1 21.1174L565.225 10.8674L562.09 8.38261L553.965 18.6326L557.1 21.1174ZM561.684 9.94982L568.309 50.1998L572.256 49.5502L565.631 9.30018L561.684 9.94982ZM568.306 49.5687L561.681 92.3187L565.634 92.9313L572.259 50.1813L568.306 49.5687ZM674.942 93.75L674.048 95.5389L674.055 95.5425L674.942 93.75ZM655.817 76.75L654.121 77.81L654.127 77.8187L655.817 76.75ZM655.817 25.625L657.508 26.6937L657.513 26.685L655.817 25.625ZM674.942 8.5L674.055 6.70752L674.048 6.71114L674.942 8.5ZM732.317 8.5L731.423 10.2889L731.43 10.2925L732.317 8.5ZM751.567 25.625L749.871 26.685L749.877 26.6937L751.567 25.625ZM751.567 76.75L753.258 77.8187L753.263 77.81L751.567 76.75ZM732.317 93.75L731.43 91.9575L731.423 91.9611L732.317 93.75ZM721.317 77.375L720.447 75.5743L720.435 75.5801L721.317 77.375ZM732.817 67L731.111 65.9571L731.104 65.9687L731.097 65.9804L732.817 67ZM732.817 35.25L731.097 36.2696L731.104 36.2813L731.111 36.2929L732.817 35.25ZM721.317 24.875L720.435 26.6699L720.447 26.6757L721.317 24.875ZM674.442 35.25L672.736 34.2071L672.729 34.2187L672.722 34.2304L674.442 35.25ZM674.442 67L672.722 68.0196L672.729 68.0313L672.736 68.0429L674.442 67ZM703.692 97.875C693.027 97.875 683.757 95.8812 675.83 91.9575L674.055 95.5425C682.628 99.7854 692.525 101.875 703.692 101.875V97.875ZM675.837 91.9611C667.974 88.0299 661.884 82.6031 657.508 75.6813L654.127 77.8187C658.918 85.3969 665.577 91.3035 674.048 95.5389L675.837 91.9611ZM657.513 75.69C653.153 68.7137 650.942 60.5492 650.942 51.125H646.942C646.942 61.2008 649.315 70.1196 654.121 77.81L657.513 75.69ZM650.942 51.125C650.942 41.7003 653.153 33.5818 657.508 26.6937L654.127 24.5563C649.315 32.1682 646.942 41.0497 646.942 51.125H650.942ZM657.513 26.685C661.891 19.6814 667.98 14.2172 675.837 10.2889L674.048 6.71114C665.571 10.9495 658.911 16.9019 654.121 24.565L657.513 26.685ZM675.83 10.2925C683.757 6.36878 693.027 4.37499 703.692 4.37499V0.374994C692.525 0.374994 682.628 2.46455 674.055 6.70754L675.83 10.2925ZM703.692 4.37499C714.359 4.37499 723.583 6.36899 731.423 10.2889L733.212 6.71114C724.718 2.46433 714.859 0.374994 703.692 0.374994V4.37499ZM731.43 10.2925C739.37 14.2224 745.497 19.6865 749.871 26.685L753.263 24.565C748.471 16.8968 741.765 10.9443 733.205 6.70754L731.43 10.2925ZM749.877 26.6937C754.231 33.5818 756.442 41.7003 756.442 51.125H760.442C760.442 41.0497 758.07 32.1682 753.258 24.5563L749.877 26.6937ZM756.442 51.125C756.442 60.5492 754.232 68.7137 749.871 75.69L753.263 77.81C758.07 70.1196 760.442 61.2008 760.442 51.125H756.442ZM749.877 75.6813C745.504 82.5981 739.376 88.0247 731.43 91.9575L733.205 95.5425C741.759 91.3086 748.464 85.4019 753.258 77.8187L749.877 75.6813ZM731.423 91.9611C723.583 95.881 714.359 97.875 703.692 97.875V101.875C714.859 101.875 724.718 99.7857 733.212 95.5389L731.423 91.9611ZM703.692 83C710.758 83 716.949 81.7507 722.2 79.1699L720.435 75.5801C715.852 77.8326 710.294 79 703.692 79V83ZM722.188 79.1757C727.519 76.599 731.658 72.8792 734.538 68.0196L731.097 65.9804C728.643 70.1208 725.116 73.3177 720.447 75.5743L722.188 79.1757ZM734.524 68.0429C737.494 63.1832 738.942 57.5188 738.942 51.125H734.942C734.942 56.8979 733.641 61.8168 731.111 65.9571L734.524 68.0429ZM738.942 51.125C738.942 44.7312 737.494 39.0668 734.524 34.2071L731.111 36.2929C733.641 40.4332 734.942 45.3521 734.942 51.125H738.942ZM734.538 34.2304C731.658 29.3708 727.519 25.651 722.188 23.0743L720.447 26.6757C725.116 28.9323 728.643 32.1292 731.097 36.2696L734.538 34.2304ZM722.2 23.0801C716.949 20.4993 710.758 19.25 703.692 19.25V23.25C710.294 23.25 715.852 24.4174 720.435 26.6699L722.2 23.0801ZM703.692 19.25C696.705 19.25 690.521 20.5012 685.197 23.0743L686.938 26.6757C691.614 24.4154 697.18 23.25 703.692 23.25V19.25ZM685.197 23.0743C679.871 25.6487 675.697 29.3617 672.736 34.2071L676.149 36.2929C678.688 32.1383 682.264 28.9346 686.938 26.6757L685.197 23.0743ZM672.722 34.2304C669.844 39.0863 668.442 44.7421 668.442 51.125H672.442C672.442 45.3412 673.707 40.4137 676.163 36.2696L672.722 34.2304ZM668.442 51.125C668.442 57.5079 669.844 63.1637 672.722 68.0196L676.163 65.9804C673.707 61.8363 672.442 56.9088 672.442 51.125H668.442ZM672.736 68.0429C675.697 72.8883 679.871 76.6012 685.197 79.1757L686.938 75.5743C682.264 73.3154 678.688 70.1117 676.149 65.9571L672.736 68.0429ZM685.197 79.1757C690.521 81.7487 696.705 83 703.692 83V79C697.18 79 691.614 77.8346 686.938 75.5743L685.197 79.1757ZM787.824 45.875V43.875H785.824V45.875H787.824ZM835.199 42.625L836.437 44.196L836.443 44.1912L835.199 42.625ZM835.199 24.25L833.961 25.821L833.973 25.8299L833.984 25.8387L835.199 24.25ZM784.699 21L783.202 19.6745L780.258 23H784.699V21ZM794.324 10.125H796.324V4.84758L792.827 8.79948L794.324 10.125ZM794.324 98V100H796.324V98H794.324ZM773.074 98H771.074V100H773.074V98ZM773.074 4.24999V2.24999H771.074V4.24999H773.074ZM844.449 8L843.578 9.80031L843.59 9.80604L843.602 9.81162L844.449 8ZM856.574 18.125L858.233 17.0082V17.0082L856.574 18.125ZM856.574 48.5L858.233 49.6167L856.574 48.5ZM844.449 58.75L845.297 60.5616L845.308 60.556L845.32 60.5503L844.449 58.75ZM787.824 62.375H785.824V64.375H787.824V62.375ZM804.074 54.125V52.125H799.939L802.506 55.3667L804.074 54.125ZM828.324 54.125L829.881 52.8697L829.281 52.125H828.324V54.125ZM863.699 98V100H867.881L865.256 96.7447L863.699 98ZM838.824 98L837.256 99.2418L837.857 100H838.824V98ZM787.824 47.875H823.949V43.875H787.824V47.875ZM823.949 47.875C828.989 47.875 833.227 46.7251 836.437 44.196L833.961 41.054C831.672 42.8582 828.409 43.875 823.949 43.875V47.875ZM836.443 44.1912C839.798 41.5273 841.449 37.844 841.449 33.375H837.449C837.449 36.7393 836.268 39.2227 833.955 41.0588L836.443 44.1912ZM841.449 33.375C841.449 28.9057 839.796 25.2471 836.414 22.6613L833.984 25.8387C836.27 27.5862 837.449 30.011 837.449 33.375H841.449ZM836.437 22.679C833.227 20.1498 828.989 19 823.949 19V23C828.409 23 831.672 24.0168 833.961 25.821L836.437 22.679ZM823.949 19H784.699V23H823.949V19ZM786.197 22.3255L795.822 11.4505L792.827 8.79948L783.202 19.6745L786.197 22.3255ZM792.324 10.125V98H796.324V10.125H792.324ZM794.324 96H773.074V100H794.324V96ZM775.074 98V4.24999H771.074V98H775.074ZM773.074 6.24999H826.449V2.24999H773.074V6.24999ZM826.449 6.24999C833.038 6.24999 838.73 7.45445 843.578 9.80031L845.32 6.19968C839.835 3.54554 833.527 2.24999 826.449 2.24999V6.24999ZM843.602 9.81162C848.471 12.0892 852.219 15.2367 854.915 19.2417L858.233 17.0082C855.096 12.3466 850.761 8.74415 845.297 6.18838L843.602 9.81162ZM854.915 19.2417C857.584 23.2072 858.949 27.8913 858.949 33.375H862.949C862.949 27.192 861.398 21.7095 858.233 17.0082L854.915 19.2417ZM858.949 33.375C858.949 38.7689 857.587 43.413 854.915 47.3832L858.233 49.6167C861.394 44.9203 862.949 39.4811 862.949 33.375H858.949ZM854.915 47.3832C852.215 51.3946 848.459 54.5881 843.578 56.9497L845.32 60.5503C850.773 57.9119 855.1 54.2721 858.233 49.6167L854.915 47.3832ZM843.602 56.9384C838.748 59.2088 833.047 60.375 826.449 60.375V64.375C833.518 64.375 839.817 63.1245 845.297 60.5616L843.602 56.9384ZM826.449 60.375H787.824V64.375H826.449V60.375ZM789.824 62.375V45.875H785.824V62.375H789.824ZM804.074 56.125H828.324V52.125H804.074V56.125ZM826.767 55.3803L862.142 99.2553L865.256 96.7447L829.881 52.8697L826.767 55.3803ZM863.699 96H838.824V100H863.699V96ZM840.392 96.7582L805.642 52.8833L802.506 55.3667L837.256 99.2418L840.392 96.7582ZM890.256 78.25H888.256V80.25H890.256V78.25ZM890.256 61V59H888.256V61H890.256ZM955.256 61H957.256V59H955.256V61ZM955.256 78.25V80.25H957.256V78.25H955.256ZM936.881 4.24999L938.692 3.40224L938.153 2.24999H936.881V4.24999ZM980.756 98V100H983.9L982.567 97.1522L980.756 98ZM958.131 98L956.308 98.822L956.839 100H958.131V98ZM919.756 12.875V10.875H916.66L917.933 13.6969L919.756 12.875ZM926.756 12.875L928.579 13.6969L929.851 10.875H926.756V12.875ZM888.381 98V100H889.673L890.204 98.822L888.381 98ZM865.756 98L863.944 97.1522L862.612 100H865.756V98ZM909.631 4.24999V2.24999H908.359L907.819 3.40224L909.631 4.24999ZM892.256 78.25V61H888.256V78.25H892.256ZM890.256 63H955.256V59H890.256V63ZM953.256 61V78.25H957.256V61H953.256ZM955.256 76.25H890.256V80.25H955.256V76.25ZM935.069 5.09775L978.944 98.8478L982.567 97.1522L938.692 3.40224L935.069 5.09775ZM980.756 96H958.131V100H980.756V96ZM959.954 97.178L921.579 12.053L917.933 13.6969L956.308 98.822L959.954 97.178ZM919.756 14.875H926.756V10.875H919.756V14.875ZM924.933 12.053L886.558 97.178L890.204 98.822L928.579 13.6969L924.933 12.053ZM888.381 96H865.756V100H888.381V96ZM867.567 98.8478L911.442 5.09775L907.819 3.40224L863.944 97.1522L867.567 98.8478ZM909.631 6.24999H936.881V2.24999H909.631V6.24999ZM1005.1 13.75V11.75H1003.1V13.75H1005.1ZM1026.22 13.75H1028.22V11.75H1026.22V13.75ZM1026.22 98V100H1028.22V98H1026.22ZM1005.1 98H1003.1V100H1005.1V98ZM967.723 4.24999V2.24999H965.723V4.24999H967.723ZM1063.47 4.24999H1065.47V2.24999H1063.47V4.24999ZM1063.47 23V25H1065.47V23H1063.47ZM967.723 23H965.723V25H967.723V23ZM1005.1 15.75H1026.22V11.75H1005.1V15.75ZM1024.22 13.75V98H1028.22V13.75H1024.22ZM1026.22 96H1005.1V100H1026.22V96ZM1007.1 98V13.75H1003.1V98H1007.1ZM967.723 6.24999H1063.47V2.24999H967.723V6.24999ZM1061.47 4.24999V23H1065.47V4.24999H1061.47ZM1063.47 21H967.723V25H1063.47V21ZM969.723 23V4.24999H965.723V23H969.723ZM1152.82 43H1154.82V41H1152.82V43ZM1152.82 59.25V61.25H1154.82V59.25H1152.82ZM1085.7 59.25H1083.7V61.25H1085.7V59.25ZM1085.7 43V41H1083.7V43H1085.7ZM1099.95 51.125L1101.92 51.4356L1101.97 51.125L1101.92 50.8143L1099.95 51.125ZM1093.7 90.875L1092.19 92.1971L1095.01 95.3925L1095.67 91.1856L1093.7 90.875ZM1084.45 80.375V78.375H1080.02L1082.94 81.6971L1084.45 80.375ZM1156.7 80.375H1158.7V78.375H1156.7V80.375ZM1156.7 98V100H1158.7V98H1156.7ZM1072.32 98L1070.34 97.6943L1069.99 100H1072.32V98ZM1079.57 51.125L1081.55 51.4307L1081.59 51.125L1081.55 50.8193L1079.57 51.125ZM1072.32 4.24999V2.24999H1069.99L1070.34 4.55569L1072.32 4.24999ZM1156.07 4.24999H1158.07V2.24999H1156.07V4.24999ZM1156.07 21.875V23.875H1158.07V21.875H1156.07ZM1084.45 21.875L1082.94 20.5529L1080.02 23.875H1084.45V21.875ZM1093.7 11.375L1095.67 11.0643L1095.01 6.85754L1092.19 10.0529L1093.7 11.375ZM1150.82 43V59.25H1154.82V43H1150.82ZM1152.82 57.25H1085.7V61.25H1152.82V57.25ZM1087.7 59.25V43H1083.7V59.25H1087.7ZM1085.7 45H1152.82V41H1085.7V45ZM1097.97 50.8143L1091.72 90.5644L1095.67 91.1856L1101.92 51.4356L1097.97 50.8143ZM1095.2 89.5529L1085.95 79.0529L1082.94 81.6971L1092.19 92.1971L1095.2 89.5529ZM1084.45 82.375H1156.7V78.375H1084.45V82.375ZM1154.7 80.375V98H1158.7V80.375H1154.7ZM1156.7 96H1072.32V100H1156.7V96ZM1074.3 98.3057L1081.55 51.4307L1077.59 50.8193L1070.34 97.6943L1074.3 98.3057ZM1081.55 50.8193L1074.3 3.94429L1070.34 4.55569L1077.59 51.4307L1081.55 50.8193ZM1072.32 6.24999H1156.07V2.24999H1072.32V6.24999ZM1154.07 4.24999V21.875H1158.07V4.24999H1154.07ZM1156.07 19.875H1084.45V23.875H1156.07V19.875ZM1085.95 23.1971L1095.2 12.6971L1092.19 10.0529L1082.94 20.5529L1085.95 23.1971ZM1091.72 11.6856L1097.97 51.4356L1101.92 50.8143L1095.67 11.0643L1091.72 11.6856ZM1316.3 89.375V91.375H1319.11L1318.19 88.7176L1316.3 89.375ZM1309.05 89.375L1307.13 88.7882L1306.34 91.375H1309.05V89.375ZM1335.17 4.24999V2.24999H1333.69L1333.26 3.6632L1335.17 4.24999ZM1357.42 4.24999L1359.33 4.86185L1360.17 2.24999H1357.42V4.24999ZM1327.3 98V100H1328.75L1329.2 98.6119L1327.3 98ZM1300.17 98L1298.29 98.6698L1298.76 100H1300.17V98ZM1270.67 15V13H1267.84L1268.79 15.6698L1270.67 15ZM1279.92 15L1281.81 15.6698L1282.76 13H1279.92V15ZM1250.42 98V100H1251.83L1252.31 98.6698L1250.42 98ZM1223.3 98L1221.39 98.6119L1221.84 100H1223.3V98ZM1193.17 4.24999V2.24999H1190.43L1191.27 4.86185L1193.17 4.24999ZM1215.67 4.24999L1217.59 3.66834L1217.15 2.24999H1215.67V4.24999ZM1241.55 89.375L1241.51 91.3747L1244.26 91.4238L1243.46 88.7934L1241.55 89.375ZM1234.55 89.25L1232.66 88.5943L1231.75 91.2004L1234.51 91.2497L1234.55 89.25ZM1264.05 4.24999V2.24999H1262.62L1262.16 3.59424L1264.05 4.24999ZM1286.67 4.24999L1288.56 3.59263L1288.09 2.24999H1286.67V4.24999ZM1316.3 87.375H1309.05V91.375H1316.3V87.375ZM1310.96 89.9618L1337.08 4.83678L1333.26 3.6632L1307.13 88.7882L1310.96 89.9618ZM1335.17 6.24999H1357.42V2.24999H1335.17V6.24999ZM1355.52 3.63814L1325.39 97.3881L1329.2 98.6119L1359.33 4.86185L1355.52 3.63814ZM1327.3 96H1300.17V100H1327.3V96ZM1302.06 97.3302L1272.56 14.3302L1268.79 15.6698L1298.29 98.6698L1302.06 97.3302ZM1270.67 17H1279.92V13H1270.67V17ZM1278.04 14.3302L1248.54 97.3302L1252.31 98.6698L1281.81 15.6698L1278.04 14.3302ZM1250.42 96H1223.3V100H1250.42V96ZM1225.2 97.3881L1195.08 3.63814L1191.27 4.86185L1221.39 98.6119L1225.2 97.3881ZM1193.17 6.24999H1215.67V2.24999H1193.17V6.24999ZM1213.76 4.83164L1239.63 89.9566L1243.46 88.7934L1217.59 3.66834L1213.76 4.83164ZM1241.58 87.3753L1234.58 87.2503L1234.51 91.2497L1241.51 91.3747L1241.58 87.3753ZM1236.44 89.9057L1265.94 4.90574L1262.16 3.59424L1232.66 88.5943L1236.44 89.9057ZM1264.05 6.24999H1286.67V2.24999H1264.05V6.24999ZM1284.78 4.90736L1314.41 90.0324L1318.19 88.7176L1288.56 3.59263L1284.78 4.90736ZM1368.53 4.24999V2.24999H1366.53V4.24999H1368.53ZM1389.78 4.24999H1391.78V2.24999H1389.78V4.24999ZM1389.78 98V100H1391.78V98H1389.78ZM1368.53 98H1366.53V100H1368.53V98ZM1368.53 6.24999H1389.78V2.24999H1368.53V6.24999ZM1387.78 4.24999V98H1391.78V4.24999H1387.78ZM1389.78 96H1368.53V100H1389.78V96ZM1370.53 98V4.24999H1366.53V98H1370.53ZM1438.81 13.75V11.75H1436.81V13.75H1438.81ZM1459.94 13.75H1461.94V11.75H1459.94V13.75ZM1459.94 98V100H1461.94V98H1459.94ZM1438.81 98H1436.81V100H1438.81V98ZM1401.44 4.24999V2.24999H1399.44V4.24999H1401.44ZM1497.19 4.24999H1499.19V2.24999H1497.19V4.24999ZM1497.19 23V25H1499.19V23H1497.19ZM1401.44 23H1399.44V25H1401.44V23ZM1438.81 15.75H1459.94V11.75H1438.81V15.75ZM1457.94 13.75V98H1461.94V13.75H1457.94ZM1459.94 96H1438.81V100H1459.94V96ZM1440.81 98V13.75H1436.81V98H1440.81ZM1401.44 6.24999H1497.19V2.24999H1401.44V6.24999ZM1495.19 4.24999V23H1499.19V4.24999H1495.19ZM1497.19 21H1401.44V25H1497.19V21ZM1403.44 23V4.24999H1399.44V23H1403.44ZM1509.04 4.24999V2.24999H1507.04V4.24999H1509.04ZM1530.29 4.24999H1532.29V2.24999H1530.29V4.24999ZM1530.29 98V100H1532.29V98H1530.29ZM1509.04 98H1507.04V100H1509.04V98ZM1584.04 4.24999V2.24999H1582.04V4.24999H1584.04ZM1605.29 4.24999H1607.29V2.24999H1605.29V4.24999ZM1605.29 98V100H1607.29V98H1605.29ZM1584.04 98H1582.04V100H1584.04V98ZM1520.66 41.25V39.25H1518.66V41.25H1520.66ZM1593.41 41.25H1595.41V39.25H1593.41V41.25ZM1593.41 59.875V61.875H1595.41V59.875H1593.41ZM1520.66 59.875H1518.66V61.875H1520.66V59.875ZM1509.04 6.24999H1530.29V2.24999H1509.04V6.24999ZM1528.29 4.24999V98H1532.29V4.24999H1528.29ZM1530.29 96H1509.04V100H1530.29V96ZM1511.04 98V4.24999H1507.04V98H1511.04ZM1584.04 6.24999H1605.29V2.24999H1584.04V6.24999ZM1603.29 4.24999V98H1607.29V4.24999H1603.29ZM1605.29 96H1584.04V100H1605.29V96ZM1586.04 98V4.24999H1582.04V98H1586.04ZM1520.66 43.25H1593.41V39.25H1520.66V43.25ZM1591.41 41.25V59.875H1595.41V41.25H1591.41ZM1593.41 57.875H1520.66V61.875H1593.41V57.875ZM1522.66 59.875V41.25H1518.66V59.875H1522.66ZM1679.37 69.75L1677.61 70.6933L1679.37 69.75ZM1687.75 78.125L1686.79 79.8808L1686.81 79.8936L1686.84 79.9059L1687.75 78.125ZM1714.75 78.125L1715.67 79.8975L1715.69 79.8893L1715.7 79.8808L1714.75 78.125ZM1723.12 69.75L1724.89 70.6933L1723.12 69.75ZM1726 4.24999V2.24999H1724V4.24999H1726ZM1747.25 4.24999H1749.25V2.24999H1747.25V4.24999ZM1741.5 80L1743.2 81.0457L1743.21 81.0356L1741.5 80ZM1725.37 94.625L1726.28 96.4095L1725.37 94.625ZM1677.12 94.625L1676.21 96.4051L1676.22 96.4095L1677.12 94.625ZM1661 80L1659.29 81.0356L1659.29 81.0489L1659.3 81.062L1661 80ZM1655.25 4.24999V2.24999H1653.25V4.24999H1655.25ZM1676.5 4.24999H1678.5V2.24999H1676.5V4.24999ZM1674.5 56.875C1674.5 62.1293 1675.5 66.7603 1677.61 70.6933L1681.14 68.8067C1679.41 65.5731 1678.5 61.6207 1678.5 56.875H1674.5ZM1677.61 70.6933C1679.71 74.6301 1682.79 77.6997 1686.79 79.8808L1688.7 76.3692C1685.37 74.5503 1682.86 72.0365 1681.14 68.8067L1677.61 70.6933ZM1686.84 79.9059C1690.93 81.9977 1695.76 83 1701.25 83V79C1696.24 79 1692.06 78.0856 1688.66 76.3441L1686.84 79.9059ZM1701.25 83C1706.81 83 1711.65 82.0005 1715.67 79.8975L1713.82 76.3525C1710.51 78.0828 1706.35 79 1701.25 79V83ZM1715.7 79.8808C1719.7 77.6997 1722.78 74.6301 1724.89 70.6933L1721.36 68.8067C1719.63 72.0365 1717.12 74.5503 1713.79 76.3692L1715.7 79.8808ZM1724.89 70.6933C1726.99 66.7603 1728 62.1293 1728 56.875H1724C1724 61.6207 1723.09 65.5731 1721.36 68.8067L1724.89 70.6933ZM1728 56.875V4.24999H1724V56.875H1728ZM1726 6.24999H1747.25V2.24999H1726V6.24999ZM1745.25 4.24999V57.875H1749.25V4.24999H1745.25ZM1745.25 57.875C1745.25 65.9776 1743.41 72.9844 1739.79 78.9644L1743.21 81.0356C1747.26 74.3489 1749.25 66.6057 1749.25 57.875H1745.25ZM1739.79 78.9543C1736.16 84.8702 1731.07 89.4977 1724.47 92.8405L1726.28 96.4095C1733.5 92.7523 1739.16 87.6298 1743.2 81.0457L1739.79 78.9543ZM1724.47 92.8405C1717.88 96.1751 1710.16 97.875 1701.25 97.875V101.875C1710.67 101.875 1719.03 100.075 1726.28 96.4095L1724.47 92.8405ZM1701.25 97.875C1692.34 97.875 1684.62 96.1751 1678.03 92.8405L1676.22 96.4095C1683.46 100.075 1691.82 101.875 1701.25 101.875V97.875ZM1678.03 92.8449C1671.51 89.5023 1666.41 84.8696 1662.69 78.938L1659.3 81.062C1663.42 87.6304 1669.07 92.7477 1676.21 96.4051L1678.03 92.8449ZM1662.71 78.9644C1659.09 72.9844 1657.25 65.9776 1657.25 57.875H1653.25C1653.25 66.6057 1655.24 74.3489 1659.29 81.0356L1662.71 78.9644ZM1657.25 57.875V4.24999H1653.25V57.875H1657.25ZM1655.25 6.24999H1676.5V2.24999H1655.25V6.24999ZM1674.5 4.24999V56.875H1678.5V4.24999H1674.5ZM1760.26 67.375V65.375H1758.16L1758.26 67.4774L1760.26 67.375ZM1781.76 67.375L1783.74 67.0631L1783.47 65.375H1781.76V67.375ZM1785.89 75.75L1784.42 77.1128L1784.45 77.139L1784.47 77.1642L1785.89 75.75ZM1795.14 81.25L1794.48 83.139L1794.5 83.1475L1794.53 83.1553L1795.14 81.25ZM1826.14 80L1827.02 81.7958L1827.02 81.7924L1827.03 81.7889L1826.14 80ZM1828.89 64.125L1827.75 65.7714L1827.78 65.7937L1827.82 65.8146L1828.89 64.125ZM1815.26 60.5L1815.04 62.4874L1815.04 62.4875L1815.26 60.5ZM1796.39 58.375L1796.61 56.3875L1796.6 56.3869L1796.39 58.375ZM1769.89 49.875L1768.62 51.425L1768.64 51.4356L1768.65 51.446L1769.89 49.875ZM1767.14 15.75L1765.61 14.4581L1765.6 14.4667L1765.6 14.4755L1767.14 15.75ZM1782.51 5.87499L1783.16 7.76751L1783.17 7.76386L1783.18 7.76009L1782.51 5.87499ZM1828.89 6.25L1828.17 8.11787L1828.18 8.12174L1828.19 8.12549L1828.89 6.25ZM1845.01 16.875L1843.5 18.1901L1843.51 18.1969L1843.52 18.2037L1845.01 16.875ZM1851.51 32.75V34.75H1853.62L1853.51 32.6406L1851.51 32.75ZM1830.01 32.75L1828.03 33.0496L1828.29 34.75H1830.01V32.75ZM1826.26 25.625L1824.82 27.0101L1824.85 27.0395L1824.88 27.0678L1826.26 25.625ZM1817.89 20.875L1817.27 22.7767L1817.29 22.7833L1817.31 22.7894L1817.89 20.875ZM1789.14 22.125L1788.24 20.3361L1789.14 22.125ZM1786.64 37.25L1785.51 38.9049L1785.55 38.9278L1785.58 38.9493L1786.64 37.25ZM1799.26 40.625L1799.01 42.6096L1799.02 42.6105L1799.26 40.625ZM1818.89 43L1818.65 44.9855L1818.66 44.9873L1818.68 44.9889L1818.89 43ZM1839.51 47.5L1838.75 49.3506L1838.77 49.3581L1838.79 49.3651L1839.51 47.5ZM1850.51 55.625L1848.82 56.6961L1848.83 56.7106L1848.84 56.725L1850.51 55.625ZM1848.14 85.125L1846.58 83.869L1846.58 83.8722L1848.14 85.125ZM1783.64 95.875L1782.91 97.7394L1782.92 97.7431L1782.93 97.7467L1783.64 95.875ZM1766.89 84.5L1765.35 85.7778L1765.35 85.7843L1765.36 85.7907L1766.89 84.5ZM1760.26 69.375H1781.76V65.375H1760.26V69.375ZM1779.79 67.6869C1780.35 71.2594 1781.91 74.4139 1784.42 77.1128L1787.35 74.3872C1785.36 72.2528 1784.17 69.824 1783.74 67.0631L1779.79 67.6869ZM1784.47 77.1642C1787.06 79.7542 1790.43 81.7289 1794.48 83.139L1795.79 79.361C1792.18 78.1045 1789.38 76.4124 1787.3 74.3358L1784.47 77.1642ZM1794.53 83.1553C1798.68 84.4809 1803.39 85.125 1808.64 85.125V81.125C1803.71 81.125 1799.42 80.5191 1795.74 79.3447L1794.53 83.1553ZM1808.64 85.125C1816.2 85.125 1822.38 84.0683 1827.02 81.7958L1825.26 78.2042C1821.39 80.0983 1815.9 81.125 1808.64 81.125V85.125ZM1827.03 81.7889C1831.83 79.39 1834.64 75.803 1834.64 71H1830.64C1830.64 73.8637 1829.11 76.2767 1825.24 78.2111L1827.03 81.7889ZM1834.64 71C1834.64 67.3262 1833.05 64.3915 1829.96 62.4354L1827.82 65.8146C1829.73 67.0252 1830.64 68.6738 1830.64 71H1834.64ZM1830.02 62.4786C1827.16 60.5021 1822.16 59.2635 1815.49 58.5125L1815.04 62.4875C1821.7 63.2365 1825.78 64.4146 1827.75 65.7714L1830.02 62.4786ZM1815.49 58.5126L1796.61 56.3876L1796.16 60.3624L1815.04 62.4874L1815.49 58.5126ZM1796.6 56.3869C1784.57 55.0677 1776.18 52.2902 1771.12 48.304L1768.65 51.446C1774.59 56.1265 1783.87 59.0157 1796.17 60.3631L1796.6 56.3869ZM1771.15 48.325C1766.26 44.3371 1763.76 38.8144 1763.76 31.5H1759.76C1759.76 39.8523 1762.68 46.5795 1768.62 51.425L1771.15 48.325ZM1763.76 31.5C1763.76 25.7505 1765.42 20.9639 1768.68 17.0245L1765.6 14.4755C1761.69 19.2028 1759.76 24.9162 1759.76 31.5H1763.76ZM1768.66 17.0419C1772.05 13.0408 1776.84 9.92687 1783.16 7.76751L1781.86 3.98247C1775.02 6.32311 1769.56 9.79254 1765.61 14.4581L1768.66 17.0419ZM1783.18 7.76009C1789.5 5.52054 1797.01 4.37499 1805.76 4.37499V0.374994C1796.68 0.374994 1788.69 1.56278 1781.84 3.9899L1783.18 7.76009ZM1805.76 4.37499C1814.23 4.37499 1821.69 5.63737 1828.17 8.11787L1829.6 4.38212C1822.58 1.69596 1814.63 0.374994 1805.76 0.374994V4.37499ZM1828.19 8.12549C1834.69 10.5307 1839.76 13.9009 1843.5 18.1901L1846.52 15.5599C1842.26 10.6824 1836.59 6.96926 1829.58 4.3745L1828.19 8.12549ZM1843.52 18.2037C1847.21 22.3614 1849.21 27.2218 1849.51 32.8594L1853.51 32.6406C1853.15 26.1116 1850.81 20.3886 1846.51 15.5463L1843.52 18.2037ZM1851.51 30.75H1830.01V34.75H1851.51V30.75ZM1831.99 32.4504C1831.5 29.2468 1830.04 26.475 1827.65 24.1822L1824.88 27.0678C1826.66 28.775 1827.69 30.7532 1828.03 33.0496L1831.99 32.4504ZM1827.7 24.2399C1825.41 21.8461 1822.28 20.1146 1818.47 18.9606L1817.31 22.7894C1820.66 23.8021 1823.12 25.2372 1824.82 27.0101L1827.7 24.2399ZM1818.51 18.9733C1814.68 17.7261 1810.25 17.125 1805.26 17.125V21.125C1809.94 21.125 1813.93 21.6906 1817.27 22.7767L1818.51 18.9733ZM1805.26 17.125C1798.35 17.125 1792.63 18.1446 1788.24 20.3361L1790.03 23.9138C1793.65 22.1054 1798.68 21.125 1805.26 21.125V17.125ZM1788.24 20.3361C1786.03 21.4422 1784.24 22.8435 1783 24.5966C1781.75 26.3706 1781.14 28.4037 1781.14 30.625H1785.14C1785.14 29.1796 1785.52 27.9627 1786.27 26.9034C1787.03 25.8231 1788.24 24.8078 1790.03 23.9138L1788.24 20.3361ZM1781.14 30.625C1781.14 34.1174 1782.63 36.9473 1785.51 38.9049L1787.76 35.595C1785.98 34.3861 1785.14 32.7993 1785.14 30.625H1781.14ZM1785.58 38.9493C1788.39 40.6943 1792.98 41.8552 1799.01 42.6096L1799.51 38.6404C1793.54 37.8948 1789.71 36.8057 1787.69 35.5507L1785.58 38.9493ZM1799.02 42.6105L1818.65 44.9855L1819.13 41.0145L1799.5 38.6395L1799.02 42.6105ZM1818.68 44.9889C1827.25 45.8959 1833.92 47.3684 1838.75 49.3506L1840.27 45.6494C1834.94 43.4649 1827.86 41.9375 1819.1 41.0111L1818.68 44.9889ZM1838.79 49.3651C1843.7 51.2667 1846.96 53.7528 1848.82 56.6961L1852.2 54.5539C1849.73 50.6638 1845.65 47.7333 1840.23 45.6349L1838.79 49.3651ZM1848.84 56.725C1850.82 59.7341 1851.89 63.6561 1851.89 68.625H1855.89C1855.89 63.0939 1854.7 58.3493 1852.18 54.525L1848.84 56.725ZM1851.89 68.625C1851.89 74.4298 1850.12 79.4838 1846.58 83.869L1849.69 86.381C1853.82 81.2662 1855.89 75.3202 1855.89 68.625H1851.89ZM1846.58 83.8722C1843.1 88.2052 1838.13 91.6444 1831.55 94.1292L1832.97 97.8708C1840.06 95.1889 1845.68 91.3782 1849.7 86.3778L1846.58 83.8722ZM1831.55 94.1292C1825 96.6084 1817.25 97.875 1808.26 97.875V101.875C1817.61 101.875 1825.86 100.558 1832.97 97.8708L1831.55 94.1292ZM1808.26 97.875C1799.11 97.875 1791.15 96.5679 1784.34 94.0033L1782.93 97.7467C1790.29 100.515 1798.74 101.875 1808.26 101.875V97.875ZM1784.36 94.0106C1777.53 91.3574 1772.24 87.7405 1768.41 83.2093L1765.36 85.7907C1769.7 90.9261 1775.58 94.8926 1782.91 97.7394L1784.36 94.0106ZM1768.43 83.2222C1764.62 78.6441 1762.57 73.3501 1762.26 67.2726L1758.26 67.4774C1758.62 74.3999 1760.98 80.5226 1765.35 85.7778L1768.43 83.2222Z" fill="#17191B" fill-opacity="0.3" mask="url(#path-1-outside-1_432_156)"/>
</svg>
